<svg width="15" height="15" viewBox="0 0 15 15" fill="none" xmlns="http://www.w3.org/2000/svg">
<path d="M9.73339 11.3375C9.79133 11.2806 9.82324 11.2023 9.82158 11.121C9.81993 11.0398 9.78485 10.9628 9.72463 10.9083C8.5277 9.89487 6.7747 9.89487 5.57777 10.9083C5.51751 10.9627 5.48237 11.0397 5.48066 11.1209C5.47894 11.2022 5.5108 11.2806 5.5687 11.3375L7.4432 13.2309C7.49814 13.2865 7.57304 13.3178 7.6512 13.3178C7.72936 13.3178 7.80426 13.2865 7.8592 13.2309L9.73339 11.3375Z" fill="black"/>
<path d="M7.65076 8.72232C8.79318 8.72225 9.89484 9.14732 10.7417 9.91493C10.8562 10.0239 11.0366 10.0215 11.1483 9.90961L12.2318 8.81375C12.2888 8.75627 12.3205 8.67829 12.3196 8.59726C12.3188 8.51623 12.2856 8.43892 12.2274 8.38261C9.64862 5.98139 5.65509 5.98139 3.07633 8.38261C3.01808 8.43892 2.98485 8.51627 2.98408 8.59733C2.98332 8.67838 3.01509 8.75635 3.07227 8.81375L4.15543 9.90961C4.26708 10.0215 4.44751 10.0239 4.56204 9.91493C5.40831 9.14783 6.50909 8.7228 7.65076 8.72232Z" fill="black"/>
<path opacity="0.2" d="M7.65087 5.15662C9.73014 5.15671 11.7299 5.95647 13.2368 7.3906C13.3503 7.50132 13.5317 7.49992 13.6434 7.38747L14.7282 6.29161C14.7848 6.23457 14.8163 6.15732 14.8158 6.07693C14.8154 5.99654 14.7829 5.91966 14.7257 5.86329C10.7705 2.06893 4.53066 2.06893 0.575444 5.86329C0.51815 5.91962 0.485642 5.99648 0.485114 6.07686C0.484586 6.15725 0.51608 6.23453 0.572629 6.29161L1.65767 7.38747C1.76936 7.50009 1.95088 7.50149 2.06428 7.3906C3.57141 5.95637 5.5714 5.15661 7.65087 5.15662Z" fill="black"/>
</svg>
