<svg width="26" height="15" viewBox="0 0 26 15" fill="none" xmlns="http://www.w3.org/2000/svg">
<g clip-path="url(#clip0_123_7260)">
<path d="M2.19 5.48082C2.19 4.86249 2.69126 4.36123 3.30959 4.36123H3.98135V11.9744H3.30959C2.69126 11.9744 2.19 11.4732 2.19 10.8548V5.48082Z" fill="white"/>
<path d="M3.98134 4.36123H5.77268V11.9744H3.98134V4.36123Z" fill="white"/>
<path d="M5.77261 4.36119H7.56396V11.9744H5.77261V4.36119Z" fill="white"/>
<path d="M7.56403 4.36123H9.35537V11.9744H7.56403V4.36123Z" fill="white"/>
<path d="M9.35538 4.36123H11.1467V11.9744H9.35538V4.36123Z" fill="white"/>
<path d="M11.1467 4.36119H12.9381V11.9744H11.1467V4.36119Z" fill="white"/>
<path d="M12.9381 4.36123H14.7294V11.9744H12.9381V4.36123Z" fill="white"/>
<path d="M16.5207 5.48078C16.5207 4.86245 16.0195 4.36119 15.4011 4.36119H14.7294V11.9744H15.4011C16.0195 11.9744 16.5207 11.4731 16.5207 10.8548V5.48078Z" fill="white"/>
</g>
<g opacity="0.5">
<path fill-rule="evenodd" clip-rule="evenodd" d="M0.39856 5.25691C0.39856 3.77291 1.60158 2.56989 3.08557 2.56989H19.2077C20.6917 2.56989 21.8947 3.77291 21.8947 5.25691V11.0788C21.8947 12.5628 20.6917 13.7658 19.2077 13.7658H3.08557C1.60158 13.7658 0.39856 12.5628 0.39856 11.0788V5.25691ZM3.08557 3.46556C2.09624 3.46556 1.29423 4.26758 1.29423 5.25691V11.0788C1.29423 12.0681 2.09624 12.8701 3.08557 12.8701H19.2077C20.197 12.8701 20.999 12.0681 20.999 11.0788V5.25691C20.999 4.26758 20.197 3.46556 19.2077 3.46556H3.08557Z" fill="white"/>
<path d="M22.7903 10.2207C23.5812 9.87516 24.1339 9.08603 24.1339 8.16783C24.1339 7.24962 23.5812 6.4605 22.7903 6.11497V10.2207Z" fill="white"/>
</g>
<defs>
<clipPath id="clip0_123_7260">
<rect width="14.3307" height="7.61321" fill="white" transform="translate(2.19 4.36123)"/>
</clipPath>
</defs>
</svg>
