<svg width="86" height="40" viewBox="0 0 86 40" fill="none" xmlns="http://www.w3.org/2000/svg">
<g filter="url(#filter0_b_123_7127)">
<path d="M24.4124 27.9439V26.4105H27.1639V19.3024H27.035L24.8567 21.882L23.6816 20.8932L26.1608 17.941H29.0126V26.4105H31.3055V27.9439H24.4124ZM32.7187 27.9439V26.4105H35.4702V19.3024H35.3412L33.1629 21.882L31.9878 20.8932L34.467 17.941H37.3189V26.4105H39.6118V27.9439H32.7187ZM41.9994 28.1015C41.6077 28.1015 41.3163 28.006 41.1252 27.8149C40.9437 27.6143 40.8529 27.3611 40.8529 27.0554V26.7974C40.8529 26.4917 40.9437 26.2385 41.1252 26.0379C41.3163 25.8373 41.6077 25.7369 41.9994 25.7369C42.4007 25.7369 42.6921 25.8373 42.8736 26.0379C43.0551 26.2385 43.1459 26.4917 43.1459 26.7974V27.0554C43.1459 27.3611 43.0551 27.6143 42.8736 27.8149C42.6921 28.006 42.4007 28.1015 41.9994 28.1015ZM41.9994 22.6702C41.6077 22.6702 41.3163 22.5746 41.1252 22.3835C40.9437 22.1829 40.8529 21.9297 40.8529 21.624V21.3661C40.8529 21.0603 40.9437 20.8072 41.1252 20.6065C41.3163 20.4059 41.6077 20.3056 41.9994 20.3056C42.4007 20.3056 42.6921 20.4059 42.8736 20.6065C43.0551 20.8072 43.1459 21.0603 43.1459 21.3661V21.624C43.1459 21.9297 43.0551 22.1829 42.8736 22.3835C42.6921 22.5746 42.4007 22.6702 41.9994 22.6702ZM47.7652 21.9823C48.3384 21.9823 48.7588 21.8676 49.0263 21.6384C49.3033 21.3995 49.4419 21.0986 49.4419 20.7355V20.6352C49.4419 20.2244 49.3081 19.9043 49.0406 19.675C48.7827 19.4362 48.4244 19.3168 47.9658 19.3168C47.5263 19.3168 47.1346 19.4219 46.7907 19.632C46.4563 19.8422 46.1649 20.1384 45.9165 20.5206L44.7127 19.4314C44.8847 19.2021 45.071 18.9872 45.2716 18.7865C45.4818 18.5763 45.7207 18.3996 45.9882 18.2563C46.2557 18.1034 46.5566 17.984 46.891 17.898C47.2254 17.812 47.6028 17.769 48.0231 17.769C48.5295 17.769 48.9881 17.8311 49.3989 17.9553C49.8193 18.07 50.1775 18.242 50.4737 18.4713C50.7794 18.7005 51.0135 18.9776 51.1759 19.3024C51.3383 19.6177 51.4195 19.976 51.4195 20.3772C51.4195 20.7021 51.367 20.9935 51.2619 21.2514C51.1663 21.5094 51.0278 21.7339 50.8463 21.925C50.6743 22.116 50.4689 22.2737 50.2301 22.3979C50.0008 22.5125 49.7572 22.5985 49.4992 22.6558V22.7418C49.7858 22.7991 50.0581 22.8899 50.3161 23.0141C50.574 23.1383 50.7937 23.3055 50.9753 23.5157C51.1663 23.7163 51.3144 23.9552 51.4195 24.2322C51.5342 24.5093 51.5915 24.8246 51.5915 25.178C51.5915 25.6175 51.5007 26.0188 51.3192 26.3818C51.1472 26.7449 50.8988 27.0554 50.574 27.3133C50.2492 27.5713 49.8622 27.7719 49.4132 27.9152C48.9642 28.049 48.4626 28.1158 47.9085 28.1158C47.4212 28.1158 46.9913 28.0633 46.6187 27.9582C46.2461 27.8627 45.9165 27.7289 45.6299 27.5569C45.3528 27.385 45.1092 27.1891 44.899 26.9694C44.6888 26.7401 44.5073 26.5012 44.3545 26.2529L45.7445 25.1924C45.8592 25.393 45.9834 25.5793 46.1171 25.7513C46.2509 25.9137 46.4038 26.057 46.5757 26.1812C46.7477 26.3054 46.9435 26.4009 47.1633 26.4678C47.383 26.5347 47.6314 26.5681 47.9085 26.5681C48.4626 26.5681 48.8878 26.4344 49.1839 26.1669C49.4801 25.8994 49.6282 25.5315 49.6282 25.0634V24.9631C49.6282 24.5045 49.4658 24.1558 49.1409 23.9169C48.8257 23.6781 48.3671 23.5587 47.7652 23.5587H46.7764V21.9823H47.7652ZM60.213 21.6957C60.213 22.4122 60.1031 23.0905 59.8834 23.7306C59.6732 24.3612 59.3961 24.944 59.0522 25.479C58.7083 26.0045 58.3213 26.4774 57.8914 26.8977C57.471 27.3085 57.0507 27.6573 56.6303 27.9439H54.0794C54.6622 27.5235 55.1877 27.1175 55.6558 26.7258C56.124 26.3341 56.53 25.9376 56.8739 25.5363C57.2274 25.1351 57.514 24.7195 57.7338 24.2895C57.9631 23.8501 58.135 23.3771 58.2497 22.8708L58.135 22.8421C58.0395 23.0332 57.9249 23.2195 57.7911 23.401C57.6669 23.5826 57.514 23.7402 57.3325 23.8739C57.151 24.0077 56.9408 24.1176 56.702 24.2036C56.4631 24.28 56.1861 24.3182 55.8708 24.3182C55.4504 24.3182 55.0635 24.2465 54.71 24.1032C54.3565 23.9599 54.046 23.7545 53.7785 23.487C53.5205 23.21 53.3151 22.8851 53.1623 22.5125C53.019 22.1304 52.9473 21.7005 52.9473 21.2228C52.9473 20.7164 53.0333 20.253 53.2053 19.8327C53.3772 19.4123 53.6209 19.0493 53.9361 18.7435C54.2514 18.4378 54.6288 18.199 55.0683 18.027C55.5173 17.855 56.0189 17.769 56.573 17.769C57.1462 17.769 57.6573 17.8646 58.1064 18.0557C58.5554 18.2372 58.9376 18.4999 59.2528 18.8439C59.5681 19.1782 59.807 19.5891 59.9694 20.0763C60.1318 20.554 60.213 21.0938 60.213 21.6957ZM56.573 22.8565C57.108 22.8565 57.5236 22.7132 57.8198 22.4265C58.1159 22.1304 58.264 21.71 58.264 21.1654V20.9505C58.264 20.4059 58.1159 19.9903 57.8198 19.7037C57.5236 19.4075 57.108 19.2594 56.573 19.2594C56.0475 19.2594 55.6319 19.4075 55.3262 19.7037C55.03 19.9903 54.882 20.4059 54.882 20.9505V21.1654C54.882 21.71 55.03 22.1304 55.3262 22.4265C55.6319 22.7132 56.0475 22.8565 56.573 22.8565Z" fill="black"/>
</g>
<defs>
<filter id="filter0_b_123_7127" x="-50.1576" y="-50.1576" width="186.3" height="139.725" filterUnits="userSpaceOnUse" color-interpolation-filters="sRGB">
<feFlood flood-opacity="0" result="BackgroundImageFix"/>
<feGaussianBlur in="BackgroundImage" stdDeviation="25.0788"/>
<feComposite in2="SourceAlpha" operator="in" result="effect1_backgroundBlur_123_7127"/>
<feBlend mode="normal" in="SourceGraphic" in2="effect1_backgroundBlur_123_7127" result="shape"/>
</filter>
</defs>
</svg>
