<svg width="87" height="40" viewBox="0 0 87 40" fill="none" xmlns="http://www.w3.org/2000/svg">
<g filter="url(#filter0_b_123_7132)">
<g clip-path="url(#clip0_123_7132)">
<g clip-path="url(#clip1_123_7132)">
<rect opacity="0.2" x="21.8716" y="17.0175" width="3.13485" height="10.3002" rx="0.895671" fill="black"/>
<path d="M17.3932 20.1524C17.3932 19.6577 17.7942 19.2567 18.2889 19.2567H19.6324C20.127 19.2567 20.528 19.6577 20.528 20.1524V26.4221C20.528 26.9168 20.127 27.3178 19.6324 27.3178H18.2889C17.7942 27.3178 17.3932 26.9168 17.3932 26.4221V20.1524Z" fill="black"/>
<path d="M12.9148 22.3916C12.9148 21.8969 13.3158 21.4959 13.8105 21.4959H15.154C15.6486 21.4959 16.0496 21.8969 16.0496 22.3916V26.4221C16.0496 26.9168 15.6486 27.3178 15.154 27.3178H13.8105C13.3158 27.3178 12.9148 26.9168 12.9148 26.4221V22.3916Z" fill="black"/>
<path d="M8.4364 24.183C8.4364 23.6884 8.83741 23.2874 9.33207 23.2874H10.6756C11.1702 23.2874 11.5713 23.6884 11.5713 24.183V26.4222C11.5713 26.9169 11.1702 27.3179 10.6756 27.3179H9.33207C8.83741 27.3179 8.4364 26.9169 8.4364 26.4222V24.183Z" fill="black"/>
</g>
<g clip-path="url(#clip2_123_7132)">
<path d="M38.7333 25.3375C38.7912 25.2806 38.8231 25.2023 38.8215 25.121C38.8198 25.0398 38.7847 24.9628 38.7245 24.9083C37.5276 23.8949 35.7746 23.8949 34.5777 24.9083C34.5174 24.9628 34.4823 25.0397 34.4805 25.121C34.4788 25.2022 34.5107 25.2806 34.5686 25.3375L36.4431 27.2309C36.498 27.2865 36.5729 27.3178 36.6511 27.3178C36.7292 27.3178 36.8041 27.2865 36.8591 27.2309L38.7333 25.3375Z" fill="black"/>
<path d="M36.6506 22.7223C37.7931 22.7223 38.8947 23.1473 39.7415 23.9149C39.8561 24.0239 40.0365 24.0215 40.1482 23.9096L41.2316 22.8138C41.2887 22.7563 41.3204 22.6783 41.3195 22.5973C41.3187 22.5162 41.2855 22.4389 41.2273 22.3826C38.6485 19.9814 34.655 19.9814 32.0762 22.3826C32.018 22.4389 31.9847 22.5163 31.984 22.5973C31.9832 22.6784 32.015 22.7564 32.0721 22.8138L33.1553 23.9096C33.267 24.0215 33.4474 24.0239 33.5619 23.9149C34.4082 23.1478 35.509 22.7228 36.6506 22.7223Z" fill="black"/>
<path opacity="0.2" d="M36.6507 19.1566C38.73 19.1567 40.7298 19.9565 42.2367 21.3906C42.3502 21.5013 42.5316 21.4999 42.6433 21.3875L43.7281 20.2916C43.7846 20.2346 43.8162 20.1573 43.8157 20.0769C43.8153 19.9966 43.7828 19.9197 43.7255 19.8633C39.7703 16.0689 33.5305 16.0689 29.5753 19.8633C29.518 19.9196 29.4855 19.9965 29.485 20.0769C29.4845 20.1573 29.516 20.2345 29.5725 20.2916L30.6575 21.3875C30.7692 21.5001 30.9508 21.5015 31.0642 21.3906C32.5713 19.9564 34.5713 19.1566 36.6507 19.1566Z" fill="black"/>
</g>
<g clip-path="url(#clip3_123_7132)">
<g clip-path="url(#clip4_123_7132)">
<path d="M49.1899 19.4808C49.1899 18.8625 49.6911 18.3612 50.3095 18.3612H50.9812V25.9744H50.3095C49.6911 25.9744 49.1899 25.4732 49.1899 24.8549V19.4808Z" fill="black"/>
<path d="M50.9812 18.3612H52.7725V25.9744H50.9812V18.3612Z" fill="black"/>
<path d="M52.7725 18.3612H54.5638V25.9744H52.7725V18.3612Z" fill="black"/>
<path d="M54.5639 18.3612H56.3552V25.9744H54.5639V18.3612Z" fill="black"/>
<path d="M56.3552 18.3612H58.1466V25.9744H56.3552V18.3612Z" fill="black"/>
<path d="M58.1466 18.3612H59.9379V25.9744H58.1466V18.3612Z" fill="black"/>
<path d="M59.9379 18.3612H61.7293V25.9744H59.9379V18.3612Z" fill="black"/>
<path d="M63.5206 19.4808C63.5206 18.8624 63.0193 18.3612 62.401 18.3612H61.7292V25.9744H62.401C63.0193 25.9744 63.5206 25.4731 63.5206 24.8548V19.4808Z" fill="black"/>
</g>
<g opacity="0.5">
<path fill-rule="evenodd" clip-rule="evenodd" d="M47.3984 19.2569C47.3984 17.7729 48.6015 16.5699 50.0855 16.5699H66.2075C67.6915 16.5699 68.8946 17.7729 68.8946 19.2569V25.0788C68.8946 26.5628 67.6915 27.7658 66.2075 27.7658H50.0855C48.6015 27.7658 47.3984 26.5628 47.3984 25.0788V19.2569ZM50.0855 17.4656C49.0961 17.4656 48.2941 18.2676 48.2941 19.2569V25.0788C48.2941 26.0681 49.0961 26.8701 50.0855 26.8701H66.2075C67.1969 26.8701 67.9989 26.0681 67.9989 25.0788V19.2569C67.9989 18.2676 67.1969 17.4656 66.2075 17.4656H50.0855Z" fill="black"/>
<path d="M69.7902 24.2207C70.5811 23.8752 71.1337 23.0861 71.1337 22.1679C71.1337 21.2496 70.5811 20.4605 69.7902 20.115V24.2207Z" fill="black"/>
</g>
</g>
</g>
</g>
<defs>
<filter id="filter0_b_123_7132" x="-49.3344" y="-50.1576" width="186.3" height="139.725" filterUnits="userSpaceOnUse" color-interpolation-filters="sRGB">
<feFlood flood-opacity="0" result="BackgroundImageFix"/>
<feGaussianBlur in="BackgroundImage" stdDeviation="25.0788"/>
<feComposite in2="SourceAlpha" operator="in" result="effect1_backgroundBlur_123_7132"/>
<feBlend mode="normal" in="SourceGraphic" in2="effect1_backgroundBlur_123_7132" result="shape"/>
</filter>
<clipPath id="clip0_123_7132">
<rect width="64.4883" height="14.3307" fill="white" transform="translate(7.98889 14.3308)"/>
</clipPath>
<clipPath id="clip1_123_7132">
<rect width="17.9134" height="14.3307" fill="white" transform="translate(7.98889 14.3308)"/>
</clipPath>
<clipPath id="clip2_123_7132">
<rect width="14.3307" height="14.3307" fill="white" transform="translate(29.485 14.3308)"/>
</clipPath>
<clipPath id="clip3_123_7132">
<rect width="25.0788" height="14.3307" fill="white" transform="translate(47.3984 14.3308)"/>
</clipPath>
<clipPath id="clip4_123_7132">
<rect width="14.3307" height="7.61321" fill="white" transform="translate(49.1899 18.3612)"/>
</clipPath>
</defs>
</svg>
