<svg width="87" height="40" viewBox="0 0 87 40" fill="none" xmlns="http://www.w3.org/2000/svg">
<g filter="url(#filter0_b_123_7224)">
<g clip-path="url(#clip0_123_7224)">
<g clip-path="url(#clip1_123_7224)">
<rect opacity="0.2" x="21.8716" y="17.0175" width="3.13485" height="10.3002" rx="0.895671" fill="white"/>
<path d="M17.3932 20.1524C17.3932 19.6577 17.7942 19.2567 18.2889 19.2567H19.6324C20.1271 19.2567 20.5281 19.6577 20.5281 20.1524V26.4221C20.5281 26.9168 20.1271 27.3178 19.6324 27.3178H18.2889C17.7942 27.3178 17.3932 26.9168 17.3932 26.4221V20.1524Z" fill="white"/>
<path d="M12.9148 22.3916C12.9148 21.8969 13.3158 21.4959 13.8105 21.4959H15.154C15.6487 21.4959 16.0497 21.8969 16.0497 22.3916V26.4221C16.0497 26.9168 15.6487 27.3178 15.154 27.3178H13.8105C13.3158 27.3178 12.9148 26.9168 12.9148 26.4221V22.3916Z" fill="white"/>
<path d="M8.43646 24.183C8.43646 23.6884 8.83747 23.2874 9.33213 23.2874H10.6756C11.1703 23.2874 11.5713 23.6884 11.5713 24.183V26.4222C11.5713 26.9169 11.1703 27.3179 10.6756 27.3179H9.33213C8.83747 27.3179 8.43646 26.9169 8.43646 26.4222V24.183Z" fill="white"/>
</g>
<g clip-path="url(#clip2_123_7224)">
<path d="M38.7333 25.3375C38.7913 25.2806 38.8232 25.2023 38.8215 25.121C38.8199 25.0398 38.7848 24.9628 38.7246 24.9083C37.5277 23.8949 35.7747 23.8949 34.5777 24.9083C34.5175 24.9628 34.4823 25.0397 34.4806 25.121C34.4789 25.2022 34.5107 25.2806 34.5687 25.3375L36.4432 27.2309C36.4981 27.2865 36.573 27.3178 36.6512 27.3178C36.7293 27.3178 36.8042 27.2865 36.8592 27.2309L38.7333 25.3375Z" fill="white"/>
<path d="M36.6507 22.7223C37.7931 22.7223 38.8948 23.1473 39.7416 23.9149C39.8561 24.0239 40.0366 24.0215 40.1482 23.9096L41.2317 22.8138C41.2887 22.7563 41.3204 22.6783 41.3196 22.5973C41.3188 22.5162 41.2855 22.4389 41.2273 22.3826C38.6485 19.9814 34.655 19.9814 32.0763 22.3826C32.018 22.4389 31.9848 22.5163 31.984 22.5973C31.9832 22.6784 32.015 22.7564 32.0722 22.8138L33.1554 23.9096C33.267 24.0215 33.4474 24.0239 33.562 23.9149C34.4082 23.1478 35.509 22.7228 36.6507 22.7223Z" fill="white"/>
<path opacity="0.2" d="M36.6508 19.1566C38.7301 19.1567 40.7299 19.9565 42.2368 21.3906C42.3503 21.5013 42.5316 21.4999 42.6434 21.3875L43.7281 20.2916C43.7847 20.2346 43.8163 20.1573 43.8158 20.077C43.8153 19.9966 43.7829 19.9197 43.7256 19.8633C39.7704 16.0689 33.5306 16.0689 29.5754 19.8633C29.5181 19.9196 29.4856 19.9965 29.4851 20.0769C29.4845 20.1573 29.516 20.2346 29.5726 20.2916L30.6576 21.3875C30.7693 21.5001 30.9508 21.5015 31.0642 21.3906C32.5714 19.9564 34.5714 19.1566 36.6508 19.1566Z" fill="white"/>
</g>
<g clip-path="url(#clip3_123_7224)">
<g clip-path="url(#clip4_123_7224)">
<path d="M49.1899 19.4808C49.1899 18.8625 49.6912 18.3612 50.3095 18.3612H50.9813V25.9745H50.3095C49.6912 25.9745 49.1899 25.4732 49.1899 24.8549V19.4808Z" fill="white"/>
<path d="M50.9812 18.3612H52.7726V25.9745H50.9812V18.3612Z" fill="white"/>
<path d="M52.7725 18.3612H54.5639V25.9744H52.7725V18.3612Z" fill="white"/>
<path d="M54.5639 18.3612H56.3553V25.9745H54.5639V18.3612Z" fill="white"/>
<path d="M56.3553 18.3612H58.1466V25.9745H56.3553V18.3612Z" fill="white"/>
<path d="M58.1466 18.3612H59.938V25.9744H58.1466V18.3612Z" fill="white"/>
<path d="M59.938 18.3612H61.7293V25.9745H59.938V18.3612Z" fill="white"/>
<path d="M63.5206 19.4808C63.5206 18.8625 63.0194 18.3612 62.401 18.3612H61.7293V25.9744H62.401C63.0194 25.9744 63.5206 25.4732 63.5206 24.8548V19.4808Z" fill="white"/>
</g>
<g opacity="0.5">
<path fill-rule="evenodd" clip-rule="evenodd" d="M47.3985 19.2569C47.3985 17.7729 48.6015 16.5699 50.0855 16.5699H66.2076C67.6916 16.5699 68.8946 17.7729 68.8946 19.2569V25.0788C68.8946 26.5628 67.6916 27.7658 66.2076 27.7658H50.0855C48.6015 27.7658 47.3985 26.5628 47.3985 25.0788V19.2569ZM50.0855 17.4656C49.0962 17.4656 48.2941 18.2676 48.2941 19.2569V25.0788C48.2941 26.0681 49.0962 26.8701 50.0855 26.8701H66.2076C67.1969 26.8701 67.9989 26.0681 67.9989 25.0788V19.2569C67.9989 18.2676 67.1969 17.4656 66.2076 17.4656H50.0855Z" fill="white"/>
<path d="M69.7903 24.2207C70.5811 23.8752 71.1338 23.086 71.1338 22.1678C71.1338 21.2496 70.5811 20.4605 69.7903 20.115V24.2207Z" fill="white"/>
</g>
</g>
</g>
</g>
<defs>
<filter id="filter0_b_123_7224" x="-49.3344" y="-50.1576" width="186.3" height="139.725" filterUnits="userSpaceOnUse" color-interpolation-filters="sRGB">
<feFlood flood-opacity="0" result="BackgroundImageFix"/>
<feGaussianBlur in="BackgroundImage" stdDeviation="25.0788"/>
<feComposite in2="SourceAlpha" operator="in" result="effect1_backgroundBlur_123_7224"/>
<feBlend mode="normal" in="SourceGraphic" in2="effect1_backgroundBlur_123_7224" result="shape"/>
</filter>
<clipPath id="clip0_123_7224">
<rect width="64.4883" height="14.3307" fill="white" transform="translate(7.98892 14.3308)"/>
</clipPath>
<clipPath id="clip1_123_7224">
<rect width="17.9134" height="14.3307" fill="white" transform="translate(7.98892 14.3308)"/>
</clipPath>
<clipPath id="clip2_123_7224">
<rect width="14.3307" height="14.3307" fill="white" transform="translate(29.485 14.3308)"/>
</clipPath>
<clipPath id="clip3_123_7224">
<rect width="25.0788" height="14.3307" fill="white" transform="translate(47.3985 14.3308)"/>
</clipPath>
<clipPath id="clip4_123_7224">
<rect width="14.3307" height="7.61321" fill="white" transform="translate(49.1899 18.3612)"/>
</clipPath>
</defs>
</svg>
