<svg width="15" height="15" viewBox="0 0 15 15" fill="none" xmlns="http://www.w3.org/2000/svg">
<path d="M9.73343 11.3375C9.79138 11.2806 9.82329 11.2023 9.82163 11.121C9.81997 11.0398 9.78489 10.9628 9.72467 10.9083C8.52775 9.89487 6.77474 9.89487 5.57782 10.9083C5.51756 10.9627 5.48242 11.0397 5.4807 11.1209C5.47899 11.2022 5.51084 11.2806 5.56875 11.3375L7.44325 13.2309C7.49819 13.2865 7.57309 13.3178 7.65125 13.3178C7.7294 13.3178 7.80431 13.2865 7.85925 13.2309L9.73343 11.3375Z" fill="white"/>
<path d="M7.65077 8.72232C8.7932 8.72225 9.89485 9.14732 10.7417 9.91493C10.8562 10.0239 11.0366 10.0215 11.1483 9.90961L12.2318 8.81375C12.2888 8.75627 12.3205 8.67829 12.3197 8.59726C12.3188 8.51623 12.2856 8.43892 12.2274 8.38261C9.64864 5.98139 5.6551 5.98139 3.07635 8.38261C3.0181 8.43892 2.98486 8.51627 2.9841 8.59733C2.98333 8.67838 3.0151 8.75635 3.07228 8.81375L4.15544 9.90961C4.2671 10.0215 4.44752 10.0239 4.56206 9.91493C5.40833 9.14783 6.50911 8.7228 7.65077 8.72232Z" fill="white"/>
<path opacity="0.2" d="M7.65092 5.15663C9.73019 5.15672 11.7299 5.95648 13.2369 7.3906C13.3504 7.50132 13.5317 7.49993 13.6435 7.38747L14.7282 6.29162C14.7848 6.23458 14.8164 6.15732 14.8159 6.07694C14.8154 5.99655 14.783 5.91967 14.7257 5.8633C10.7705 2.06893 4.5307 2.06893 0.57549 5.8633C0.518196 5.91962 0.485688 5.99649 0.48516 6.07687C0.484631 6.15726 0.516126 6.23454 0.572675 6.29162L1.65771 7.38747C1.7694 7.5001 1.95092 7.50149 2.06433 7.3906C3.57145 5.95638 5.57144 5.15662 7.65092 5.15663Z" fill="white"/>
</svg>
