<svg width="375" height="169" viewBox="0 0 375 169" fill="none" xmlns="http://www.w3.org/2000/svg">
<g filter="url(#filter0_b_144_3398)">
<g filter="url(#filter1_d_144_3398)">
<path d="M58 121C58 118.239 60.2386 116 63 116H85C87.7614 116 90 118.239 90 121V154C90 156.761 87.7614 159 85 159H63C60.2386 159 58 156.761 58 154V121Z" fill="white"/>
<path d="M67.8359 146H80.1641V144.547H69.9453V144.406L80.0234 130.262V129.09H68.1758V130.543H77.9492V130.684L67.8359 144.84V146Z" fill="black"/>
</g>
<g filter="url(#filter2_d_144_3398)">
<path d="M96 121C96 118.239 98.2386 116 101 116H123C125.761 116 128 118.239 128 121V154C128 156.761 125.761 159 123 159H101C98.2386 159 96 156.761 96 154V121Z" fill="white"/>
<path d="M105.098 146H106.926L111.883 138.852H111.953L116.875 146H118.797L112.949 137.586V137.551L118.879 129.09H117.051L112.082 136.285H112.012L107.078 129.09H105.145L110.98 137.48V137.527L105.098 146Z" fill="black"/>
</g>
<g filter="url(#filter3_d_144_3398)">
<path d="M134 121C134 118.239 136.239 116 139 116H161C163.761 116 166 118.239 166 121V154C166 156.761 163.761 159 161 159H139C136.239 159 134 156.761 134 154V121Z" fill="white"/>
<path d="M150.41 146.352C153.996 146.352 156.668 144.289 157.148 141.195L157.137 141.172L155.531 141.184L155.52 141.195C155.051 143.41 153.023 144.863 150.41 144.863C146.848 144.863 144.598 142.027 144.598 137.562V137.539C144.598 133.074 146.859 130.227 150.398 130.227C152.941 130.227 155.027 131.867 155.52 134.246L155.531 134.258H157.137L157.148 134.246C156.691 131.047 153.879 128.738 150.398 128.738C145.816 128.738 142.957 132.125 142.957 137.539V137.562C142.957 142.977 145.816 146.352 150.41 146.352Z" fill="black"/>
</g>
<g filter="url(#filter4_d_144_3398)">
<path d="M172 121C172 118.239 174.239 116 177 116H199C201.761 116 204 118.239 204 121V154C204 156.761 201.761 159 199 159H177C174.239 159 172 156.761 172 154V121Z" fill="white"/>
<path d="M187.203 146H188.797L195.113 129.09H193.426L188.07 143.902H187.918L182.562 129.09H180.875L187.203 146Z" fill="black"/>
</g>
<g filter="url(#filter5_d_144_3398)">
<path d="M210 121C210 118.239 212.239 116 215 116H237C239.761 116 242 118.239 242 121V154C242 156.761 239.761 159 237 159H215C212.239 159 210 156.761 210 154V121Z" fill="white"/>
<path d="M220.434 146H226.598C230.348 146 232.41 144.242 232.41 141.383V141.359C232.41 139.027 230.758 137.48 228.449 137.188V137.047C230.242 136.719 231.543 135.137 231.543 133.285V133.262C231.543 130.73 229.621 129.09 226.504 129.09H220.434V146ZM226.188 130.508C228.531 130.508 229.926 131.656 229.926 133.508V133.531C229.926 135.488 228.438 136.602 225.824 136.602H222.039V130.508H226.188ZM226.234 137.984C229.105 137.984 230.77 139.168 230.77 141.277V141.301C230.77 143.387 229.305 144.582 226.363 144.582H222.039V137.984H226.234Z" fill="black"/>
</g>
<g filter="url(#filter6_d_144_3398)">
<path d="M248 121C248 118.239 250.239 116 253 116H275C277.761 116 280 118.239 280 121V154C280 156.761 277.761 159 275 159H253C250.239 159 248 156.761 248 154V121Z" fill="white"/>
<path d="M257.414 146H258.996V131.949H259.148L269.039 146H270.586V129.09H269.004V143.129H268.852L258.996 129.09H257.414V146Z" fill="black"/>
</g>
<g filter="url(#filter7_d_144_3398)">
<path d="M286 121C286 118.239 288.239 116 291 116H313C315.761 116 318 118.239 318 121V154C318 156.761 315.761 159 313 159H291C288.239 159 286 156.761 286 154V121Z" fill="white"/>
<path d="M293.855 146H295.355V132.207H295.473L301.297 146H302.691L308.527 132.207H308.645V146H310.145V129.09H308.293L302.07 143.891H301.93L295.695 129.09H293.855V146Z" fill="black"/>
</g>
<g filter="url(#filter8_d_144_3398)">
<path d="M21.75 67C21.75 64.2386 23.9886 62 26.75 62H48.75C51.5114 62 53.75 64.2386 53.75 67V100C53.75 102.761 51.5114 105 48.75 105H26.75C23.9886 105 21.75 102.761 21.75 100V67Z" fill="white"/>
<path d="M30.625 92H32.3125L34.1875 86.8203H41.3008L43.1758 92H44.8633L38.5352 75.0898H36.9414L30.625 92ZM37.668 77.1875H37.8086L40.7969 85.4375H34.6797L37.668 77.1875Z" fill="black"/>
</g>
<g filter="url(#filter9_d_144_3398)">
<path d="M59.75 67C59.75 64.2386 61.9886 62 64.75 62H86.75C89.5114 62 91.75 64.2386 91.75 67V100C91.75 102.761 89.5114 105 86.75 105H64.75C61.9886 105 59.75 102.761 59.75 100V67Z" fill="white"/>
<path d="M75.832 92.3516C79.4766 92.3516 81.9141 90.3711 81.9141 87.3828V87.3711C81.9141 85.0156 80.4961 83.5977 76.9805 82.8008L75.2461 82.4023C72.6797 81.8164 71.6367 80.8672 71.6367 79.3789V79.3672C71.6367 77.4805 73.4062 76.2266 75.7383 76.2266C78.1406 76.2148 79.7344 77.4688 79.9805 79.0977L79.9922 79.2383H81.5977L81.5859 79.0859C81.3867 76.6602 79.0898 74.7383 75.7852 74.7383C72.4102 74.7383 70.0078 76.7188 70.0078 79.4023V79.4141C70.0078 81.7461 71.4375 83.1875 74.8359 83.9609L76.5703 84.3477C79.1719 84.9336 80.2852 86 80.2852 87.5586V87.582C80.2852 89.4805 78.457 90.8633 75.9141 90.8633C73.3125 90.8633 71.3672 89.5859 71.1914 87.7227L71.1797 87.5938H69.5742L69.5859 87.7227C69.832 90.4297 72.2578 92.3516 75.832 92.3516Z" fill="black"/>
</g>
<g filter="url(#filter10_d_144_3398)">
<path d="M97.75 67C97.75 64.2386 99.9886 62 102.75 62H124.75C127.511 62 129.75 64.2386 129.75 67V100C129.75 102.761 127.511 105 124.75 105H102.75C99.9886 105 97.75 102.761 97.75 100V67Z" fill="white"/>
<path d="M107.293 92H112.859C118.027 92 120.887 88.8008 120.887 83.5508V83.5273C120.887 78.2891 118.016 75.0898 112.859 75.0898H107.293V92ZM108.898 90.5469V76.543H112.766C116.891 76.543 119.246 79.1797 119.246 83.5391V83.5625C119.246 87.9219 116.902 90.5469 112.766 90.5469H108.898Z" fill="black"/>
</g>
<g filter="url(#filter11_d_144_3398)">
<path d="M135.75 67C135.75 64.2386 137.989 62 140.75 62H162.75C165.511 62 167.75 64.2386 167.75 67V100C167.75 102.761 165.511 105 162.75 105H140.75C137.989 105 135.75 102.761 135.75 100V67Z" fill="white"/>
<path d="M147.145 92H148.75V84.3242H156.496V82.8945H148.75V76.543H157.176V75.0898H147.145V92Z" fill="black"/>
</g>
<g filter="url(#filter12_d_144_3398)">
<path d="M173.75 67C173.75 64.2386 175.989 62 178.75 62H200.75C203.511 62 205.75 64.2386 205.75 67V100C205.75 102.761 203.511 105 200.75 105H178.75C175.989 105 173.75 102.761 173.75 100V67Z" fill="white"/>
<path d="M189.938 92.3516C194.191 92.3516 196.992 89.4922 196.992 85.2266V83.5742H190.16V84.9922H195.387V85.3672C195.387 88.6484 193.219 90.8633 189.938 90.8633C186.34 90.8633 184.055 88.0156 184.055 83.5156V83.4922C184.055 79.0508 186.352 76.2266 189.938 76.2266C192.598 76.2266 194.496 77.5273 195.199 79.918L195.234 80.0234H196.84L196.816 79.9062C196.148 76.7539 193.535 74.7383 189.938 74.7383C185.391 74.7383 182.414 78.1836 182.414 83.4922V83.5156C182.414 88.8945 185.367 92.3516 189.938 92.3516Z" fill="black"/>
</g>
<g filter="url(#filter13_d_144_3398)">
<path d="M211.75 67C211.75 64.2386 213.989 62 216.75 62H238.75C241.511 62 243.75 64.2386 243.75 67V100C243.75 102.761 241.511 105 238.75 105H216.75C213.989 105 211.75 102.761 211.75 100V67Z" fill="white"/>
<path d="M221.199 92H222.805V84.0664H232.695V92H234.301V75.0898H232.695V82.6133H222.805V75.0898H221.199V92Z" fill="black"/>
</g>
<g filter="url(#filter14_d_144_3398)">
<path d="M249.75 67C249.75 64.2386 251.989 62 254.75 62H276.75C279.511 62 281.75 64.2386 281.75 67V100C281.75 102.761 279.511 105 276.75 105H254.75C251.989 105 249.75 102.761 249.75 100V67Z" fill="white"/>
<path d="M265.105 92.3516C268.129 92.3516 269.957 90.4766 269.957 87.4062V75.0898H268.352V87.3359C268.352 89.5977 267.18 90.8633 265.105 90.8633C263.277 90.8633 262.188 89.6797 262.07 88.1797L262.059 88.0977H260.453L260.465 88.2148C260.605 90.582 262.316 92.3516 265.105 92.3516Z" fill="black"/>
</g>
<g filter="url(#filter15_d_144_3398)">
<path d="M287.75 67C287.75 64.2386 289.989 62 292.75 62H314.75C317.511 62 319.75 64.2386 319.75 67V100C319.75 102.761 317.511 105 314.75 105H292.75C289.989 105 287.75 102.761 287.75 100V67Z" fill="white"/>
<path d="M298.23 92H299.836V85.9648L302.098 83.5039L308.602 92H310.676L303.211 82.3906L309.984 75.0898H307.98L299.977 83.832H299.836V75.0898H298.23V92Z" fill="black"/>
</g>
<g filter="url(#filter16_d_144_3398)">
<path d="M325.75 67C325.75 64.2386 327.989 62 330.75 62H352.75C355.511 62 357.75 64.2386 357.75 67V100C357.75 102.761 355.511 105 352.75 105H330.75C327.989 105 325.75 102.761 325.75 100V67Z" fill="white"/>
<path d="M337.238 92H347.305V90.5469H338.844V75.0898H337.238V92Z" fill="black"/>
</g>
<g filter="url(#filter17_d_144_3398)">
<path d="M5 13C5 10.2386 7.23858 8 10 8H31C33.7614 8 36 10.2386 36 13V46C36 48.7614 33.7614 51 31 51H10C7.23858 51 5 48.7614 5 46V13Z" fill="white"/>
<path d="M20.5 38.3516C21.6836 38.3516 22.7617 38.1406 23.6992 37.7305L25.3398 39.9922H27.1562L24.9766 37.0039C27.0039 35.5273 28.1523 32.9258 28.1523 29.5508V29.5273C28.1523 24.1602 25.2344 20.75 20.4883 20.75C15.7891 20.75 12.8359 24.1484 12.8359 29.5273V29.5508C12.8359 34.9297 15.7422 38.3516 20.5 38.3516ZM20.5 36.875C16.75 36.875 14.4766 33.9922 14.4766 29.5508V29.5273C14.4766 25.0625 16.7969 22.2266 20.4883 22.2266C24.1914 22.2266 26.5234 25.0625 26.5234 29.5273V29.5508C26.5234 32.3164 25.6211 34.4844 24.0508 35.7148L22.3398 33.3711H20.5234L22.7734 36.4531C22.0938 36.7227 21.332 36.875 20.5 36.875Z" fill="black"/>
</g>
<g filter="url(#filter18_d_144_3398)">
<path d="M42 13C42 10.2386 44.2386 8 47 8H68C70.7614 8 73 10.2386 73 13V46C73 48.7614 70.7614 51 68 51H47C44.2386 51 42 48.7614 42 46V13Z" fill="white"/>
<path d="M51.8047 38H53.293L57.4414 23.8789H57.5586L61.707 38H63.1953L67.8477 21.0898H66.1836L62.4688 35.5039H62.3633L58.2969 21.0898H56.7031L52.6367 35.5039H52.5312L48.8164 21.0898H47.1523L51.8047 38Z" fill="black"/>
</g>
<g filter="url(#filter19_d_144_3398)">
<path d="M79 13C79 10.2386 81.2386 8 84 8H105C107.761 8 110 10.2386 110 13V46C110 48.7614 107.761 51 105 51H84C81.2386 51 79 48.7614 79 46V13Z" fill="white"/>
<path d="M89.6484 38H99.8672V36.5469H91.2539V30.0547H99.4336V28.625H91.2539V22.543H99.8672V21.0898H89.6484V38Z" fill="black"/>
</g>
<g filter="url(#filter20_d_144_3398)">
<path d="M116 13C116 10.2386 118.239 8 121 8H142C144.761 8 147 10.2386 147 13V46C147 48.7614 144.761 51 142 51H121C118.239 51 116 48.7614 116 46V13Z" fill="white"/>
<path d="M125.992 38H127.598V31.0742H131.84C131.945 31.0742 132.062 31.0742 132.168 31.0742L136.059 38H137.934L133.832 30.8164C136.094 30.2188 137.453 28.4258 137.453 26.0469V26.0234C137.453 23.0117 135.344 21.0898 132.051 21.0898H125.992V38ZM127.598 29.6445V22.5195H131.852C134.312 22.5195 135.812 23.8555 135.812 26.0703V26.0938C135.812 28.3438 134.371 29.6445 131.922 29.6445H127.598Z" fill="black"/>
</g>
<g filter="url(#filter21_d_144_3398)">
<path d="M153 13C153 10.2386 155.239 8 158 8H179C181.761 8 184 10.2386 184 13V46C184 48.7614 181.761 51 179 51H158C155.239 51 153 48.7614 153 46V13Z" fill="white"/>
<path d="M167.703 38H169.297V22.543H174.969V21.0898H162.031V22.543H167.703V38Z" fill="black"/>
</g>
<g filter="url(#filter22_d_144_3398)">
<path d="M190 13C190 10.2386 192.239 8 195 8H216C218.761 8 221 10.2386 221 13V46C221 48.7614 218.761 51 216 51H195C192.239 51 190 48.7614 190 46V13Z" fill="white"/>
<path d="M204.703 38H206.297V30.6875L212.355 21.0898H210.527L205.57 29.0586H205.43L200.473 21.0898H198.633L204.703 30.6875V38Z" fill="black"/>
</g>
<g filter="url(#filter23_d_144_3398)">
<path d="M227 13C227 10.2386 229.239 8 232 8H253C255.761 8 258 10.2386 258 13V46C258 48.7614 255.761 51 253 51H232C229.239 51 227 48.7614 227 46V13Z" fill="white"/>
<path d="M242.5 38.3516C246.566 38.3516 249.039 35.8672 249.039 32.1758V21.0898H247.434V32.082C247.434 34.9531 245.605 36.8633 242.5 36.8633C239.395 36.8633 237.543 34.9531 237.543 32.082V21.0898H235.949V32.1758C235.949 35.8672 238.434 38.3516 242.5 38.3516Z" fill="black"/>
</g>
<g filter="url(#filter24_d_144_3398)">
<path d="M264 13C264 10.2386 266.239 8 269 8H290C292.761 8 295 10.2386 295 13V46C295 48.7614 292.761 51 290 51H269C266.239 51 264 48.7614 264 46V13Z" fill="white"/>
<path d="M278.691 38H280.297V21.0898H278.691V38Z" fill="black"/>
</g>
<g filter="url(#filter25_d_144_3398)">
<path d="M301 13C301 10.2386 303.239 8 306 8H327C329.761 8 332 10.2386 332 13V46C332 48.7614 329.761 51 327 51H306C303.239 51 301 48.7614 301 46V13Z" fill="white"/>
<path d="M316.5 38.3516C321.258 38.3516 324.152 34.9297 324.152 29.5508V29.5273C324.152 24.1367 321.234 20.7383 316.5 20.7383C311.777 20.7383 308.836 24.125 308.836 29.5273V29.5508C308.836 34.9414 311.73 38.3516 316.5 38.3516ZM316.5 36.8633C312.762 36.8633 310.477 33.9922 310.477 29.5508V29.5273C310.477 25.0625 312.809 22.2266 316.5 22.2266C320.191 22.2266 322.523 25.0625 322.523 29.5273V29.5508C322.523 33.9922 320.203 36.8633 316.5 36.8633Z" fill="black"/>
</g>
<g filter="url(#filter26_d_144_3398)">
<path d="M338 13C338 10.2386 340.239 8 343 8H364C366.761 8 369 10.2386 369 13V46C369 48.7614 366.761 51 364 51H343C340.239 51 338 48.7614 338 46V13Z" fill="white"/>
<path d="M348.215 38H349.82V31.625H354.215C357.438 31.625 359.641 29.4922 359.641 26.3516V26.3281C359.641 23.1875 357.438 21.0898 354.215 21.0898H348.215V38ZM353.84 22.5195C356.441 22.5195 358.012 23.9609 358.012 26.3398V26.3633C358.012 28.7539 356.441 30.1953 353.84 30.1953H349.82V22.5195H353.84Z" fill="black"/>
</g>
<g filter="url(#filter27_d_144_3398)">
<path d="M3 121C3 118.239 5.23858 116 8 116H40C42.7614 116 45 118.239 45 121V154C45 156.761 42.7614 159 40 159H8C5.23858 159 3 156.761 3 154V121Z" fill="white"/>
<path d="M19.6368 139.643H15.0007C14.5592 139.643 14.3346 139.112 14.642 138.795L23.6412 129.502C23.8375 129.299 24.1625 129.299 24.3588 129.502L33.358 138.795C33.6654 139.112 33.4408 139.643 32.9993 139.643H28.3625V145.15C28.3625 145.426 28.1388 145.65 27.8628 145.65H20.1366C19.8606 145.65 19.6368 145.426 19.6368 145.15V139.643Z" fill="black"/>
</g>
<g filter="url(#filter28_d_144_3398)">
<path d="M330 121C330 118.239 332.239 116 335 116H367C369.761 116 372 118.239 372 121V153C372 155.761 369.761 158 367 158H335C332.239 158 330 155.761 330 153V121Z" fill="#AEB3BE"/>
<path d="M350.214 134.525C349.922 134.232 349.922 133.757 350.214 133.464C350.507 133.172 350.982 133.172 351.275 133.464L353.75 135.939L356.225 133.464C356.518 133.172 356.993 133.172 357.286 133.464C357.578 133.757 357.578 134.232 357.286 134.525L354.811 137L357.286 139.475C357.578 139.768 357.578 140.243 357.286 140.536C356.993 140.828 356.518 140.828 356.225 140.536L353.75 138.061L351.275 140.536C350.982 140.828 350.507 140.828 350.214 140.536C349.922 140.243 349.922 139.768 350.214 139.475L352.689 137L350.214 134.525Z" fill="black"/>
<path fill-rule="evenodd" clip-rule="evenodd" d="M347.121 129.379L339.5 137L347.121 144.621C347.684 145.184 348.447 145.5 349.243 145.5H359.5C361.157 145.5 362.5 144.157 362.5 142.5V131.5C362.5 129.843 361.157 128.5 359.5 128.5H349.243C348.447 128.5 347.684 128.816 347.121 129.379ZM359.5 144.2H349.243C348.792 144.2 348.359 144.021 348.041 143.702L341.339 137L348.041 130.298C348.359 129.979 348.792 129.8 349.243 129.8H359.5C360.439 129.8 361.2 130.561 361.2 131.5V142.5C361.2 143.439 360.439 144.2 359.5 144.2Z" fill="black"/>
</g>
</g>
<defs>
<filter id="filter0_b_144_3398" x="-70" y="-70" width="515" height="309" filterUnits="userSpaceOnUse" color-interpolation-filters="sRGB">
<feFlood flood-opacity="0" result="BackgroundImageFix"/>
<feGaussianBlur in="BackgroundImage" stdDeviation="35"/>
<feComposite in2="SourceAlpha" operator="in" result="effect1_backgroundBlur_144_3398"/>
<feBlend mode="normal" in="SourceGraphic" in2="effect1_backgroundBlur_144_3398" result="shape"/>
</filter>
<filter id="filter1_d_144_3398" x="58" y="116" width="32" height="44" filterUnits="userSpaceOnUse" color-interpolation-filters="sRGB">
<feFlood flood-opacity="0" result="BackgroundImageFix"/>
<feColorMatrix in="SourceAlpha" type="matrix" values="0 0 0 0 0 0 0 0 0 0 0 0 0 0 0 0 0 0 127 0" result="hardAlpha"/>
<feOffset dy="1"/>
<feColorMatrix type="matrix" values="0 0 0 0 0 0 0 0 0 0 0 0 0 0 0 0 0 0 0.3 0"/>
<feBlend mode="normal" in2="BackgroundImageFix" result="effect1_dropShadow_144_3398"/>
<feBlend mode="normal" in="SourceGraphic" in2="effect1_dropShadow_144_3398" result="shape"/>
</filter>
<filter id="filter2_d_144_3398" x="96" y="116" width="32" height="44" filterUnits="userSpaceOnUse" color-interpolation-filters="sRGB">
<feFlood flood-opacity="0" result="BackgroundImageFix"/>
<feColorMatrix in="SourceAlpha" type="matrix" values="0 0 0 0 0 0 0 0 0 0 0 0 0 0 0 0 0 0 127 0" result="hardAlpha"/>
<feOffset dy="1"/>
<feColorMatrix type="matrix" values="0 0 0 0 0 0 0 0 0 0 0 0 0 0 0 0 0 0 0.3 0"/>
<feBlend mode="normal" in2="BackgroundImageFix" result="effect1_dropShadow_144_3398"/>
<feBlend mode="normal" in="SourceGraphic" in2="effect1_dropShadow_144_3398" result="shape"/>
</filter>
<filter id="filter3_d_144_3398" x="134" y="116" width="32" height="44" filterUnits="userSpaceOnUse" color-interpolation-filters="sRGB">
<feFlood flood-opacity="0" result="BackgroundImageFix"/>
<feColorMatrix in="SourceAlpha" type="matrix" values="0 0 0 0 0 0 0 0 0 0 0 0 0 0 0 0 0 0 127 0" result="hardAlpha"/>
<feOffset dy="1"/>
<feColorMatrix type="matrix" values="0 0 0 0 0 0 0 0 0 0 0 0 0 0 0 0 0 0 0.3 0"/>
<feBlend mode="normal" in2="BackgroundImageFix" result="effect1_dropShadow_144_3398"/>
<feBlend mode="normal" in="SourceGraphic" in2="effect1_dropShadow_144_3398" result="shape"/>
</filter>
<filter id="filter4_d_144_3398" x="172" y="116" width="32" height="44" filterUnits="userSpaceOnUse" color-interpolation-filters="sRGB">
<feFlood flood-opacity="0" result="BackgroundImageFix"/>
<feColorMatrix in="SourceAlpha" type="matrix" values="0 0 0 0 0 0 0 0 0 0 0 0 0 0 0 0 0 0 127 0" result="hardAlpha"/>
<feOffset dy="1"/>
<feColorMatrix type="matrix" values="0 0 0 0 0 0 0 0 0 0 0 0 0 0 0 0 0 0 0.3 0"/>
<feBlend mode="normal" in2="BackgroundImageFix" result="effect1_dropShadow_144_3398"/>
<feBlend mode="normal" in="SourceGraphic" in2="effect1_dropShadow_144_3398" result="shape"/>
</filter>
<filter id="filter5_d_144_3398" x="210" y="116" width="32" height="44" filterUnits="userSpaceOnUse" color-interpolation-filters="sRGB">
<feFlood flood-opacity="0" result="BackgroundImageFix"/>
<feColorMatrix in="SourceAlpha" type="matrix" values="0 0 0 0 0 0 0 0 0 0 0 0 0 0 0 0 0 0 127 0" result="hardAlpha"/>
<feOffset dy="1"/>
<feColorMatrix type="matrix" values="0 0 0 0 0 0 0 0 0 0 0 0 0 0 0 0 0 0 0.3 0"/>
<feBlend mode="normal" in2="BackgroundImageFix" result="effect1_dropShadow_144_3398"/>
<feBlend mode="normal" in="SourceGraphic" in2="effect1_dropShadow_144_3398" result="shape"/>
</filter>
<filter id="filter6_d_144_3398" x="248" y="116" width="32" height="44" filterUnits="userSpaceOnUse" color-interpolation-filters="sRGB">
<feFlood flood-opacity="0" result="BackgroundImageFix"/>
<feColorMatrix in="SourceAlpha" type="matrix" values="0 0 0 0 0 0 0 0 0 0 0 0 0 0 0 0 0 0 127 0" result="hardAlpha"/>
<feOffset dy="1"/>
<feColorMatrix type="matrix" values="0 0 0 0 0 0 0 0 0 0 0 0 0 0 0 0 0 0 0.3 0"/>
<feBlend mode="normal" in2="BackgroundImageFix" result="effect1_dropShadow_144_3398"/>
<feBlend mode="normal" in="SourceGraphic" in2="effect1_dropShadow_144_3398" result="shape"/>
</filter>
<filter id="filter7_d_144_3398" x="286" y="116" width="32" height="44" filterUnits="userSpaceOnUse" color-interpolation-filters="sRGB">
<feFlood flood-opacity="0" result="BackgroundImageFix"/>
<feColorMatrix in="SourceAlpha" type="matrix" values="0 0 0 0 0 0 0 0 0 0 0 0 0 0 0 0 0 0 127 0" result="hardAlpha"/>
<feOffset dy="1"/>
<feColorMatrix type="matrix" values="0 0 0 0 0 0 0 0 0 0 0 0 0 0 0 0 0 0 0.3 0"/>
<feBlend mode="normal" in2="BackgroundImageFix" result="effect1_dropShadow_144_3398"/>
<feBlend mode="normal" in="SourceGraphic" in2="effect1_dropShadow_144_3398" result="shape"/>
</filter>
<filter id="filter8_d_144_3398" x="21.75" y="62" width="32" height="44" filterUnits="userSpaceOnUse" color-interpolation-filters="sRGB">
<feFlood flood-opacity="0" result="BackgroundImageFix"/>
<feColorMatrix in="SourceAlpha" type="matrix" values="0 0 0 0 0 0 0 0 0 0 0 0 0 0 0 0 0 0 127 0" result="hardAlpha"/>
<feOffset dy="1"/>
<feColorMatrix type="matrix" values="0 0 0 0 0 0 0 0 0 0 0 0 0 0 0 0 0 0 0.3 0"/>
<feBlend mode="normal" in2="BackgroundImageFix" result="effect1_dropShadow_144_3398"/>
<feBlend mode="normal" in="SourceGraphic" in2="effect1_dropShadow_144_3398" result="shape"/>
</filter>
<filter id="filter9_d_144_3398" x="59.75" y="62" width="32" height="44" filterUnits="userSpaceOnUse" color-interpolation-filters="sRGB">
<feFlood flood-opacity="0" result="BackgroundImageFix"/>
<feColorMatrix in="SourceAlpha" type="matrix" values="0 0 0 0 0 0 0 0 0 0 0 0 0 0 0 0 0 0 127 0" result="hardAlpha"/>
<feOffset dy="1"/>
<feColorMatrix type="matrix" values="0 0 0 0 0 0 0 0 0 0 0 0 0 0 0 0 0 0 0.3 0"/>
<feBlend mode="normal" in2="BackgroundImageFix" result="effect1_dropShadow_144_3398"/>
<feBlend mode="normal" in="SourceGraphic" in2="effect1_dropShadow_144_3398" result="shape"/>
</filter>
<filter id="filter10_d_144_3398" x="97.75" y="62" width="32" height="44" filterUnits="userSpaceOnUse" color-interpolation-filters="sRGB">
<feFlood flood-opacity="0" result="BackgroundImageFix"/>
<feColorMatrix in="SourceAlpha" type="matrix" values="0 0 0 0 0 0 0 0 0 0 0 0 0 0 0 0 0 0 127 0" result="hardAlpha"/>
<feOffset dy="1"/>
<feColorMatrix type="matrix" values="0 0 0 0 0 0 0 0 0 0 0 0 0 0 0 0 0 0 0.3 0"/>
<feBlend mode="normal" in2="BackgroundImageFix" result="effect1_dropShadow_144_3398"/>
<feBlend mode="normal" in="SourceGraphic" in2="effect1_dropShadow_144_3398" result="shape"/>
</filter>
<filter id="filter11_d_144_3398" x="135.75" y="62" width="32" height="44" filterUnits="userSpaceOnUse" color-interpolation-filters="sRGB">
<feFlood flood-opacity="0" result="BackgroundImageFix"/>
<feColorMatrix in="SourceAlpha" type="matrix" values="0 0 0 0 0 0 0 0 0 0 0 0 0 0 0 0 0 0 127 0" result="hardAlpha"/>
<feOffset dy="1"/>
<feColorMatrix type="matrix" values="0 0 0 0 0 0 0 0 0 0 0 0 0 0 0 0 0 0 0.3 0"/>
<feBlend mode="normal" in2="BackgroundImageFix" result="effect1_dropShadow_144_3398"/>
<feBlend mode="normal" in="SourceGraphic" in2="effect1_dropShadow_144_3398" result="shape"/>
</filter>
<filter id="filter12_d_144_3398" x="173.75" y="62" width="32" height="44" filterUnits="userSpaceOnUse" color-interpolation-filters="sRGB">
<feFlood flood-opacity="0" result="BackgroundImageFix"/>
<feColorMatrix in="SourceAlpha" type="matrix" values="0 0 0 0 0 0 0 0 0 0 0 0 0 0 0 0 0 0 127 0" result="hardAlpha"/>
<feOffset dy="1"/>
<feColorMatrix type="matrix" values="0 0 0 0 0 0 0 0 0 0 0 0 0 0 0 0 0 0 0.3 0"/>
<feBlend mode="normal" in2="BackgroundImageFix" result="effect1_dropShadow_144_3398"/>
<feBlend mode="normal" in="SourceGraphic" in2="effect1_dropShadow_144_3398" result="shape"/>
</filter>
<filter id="filter13_d_144_3398" x="211.75" y="62" width="32" height="44" filterUnits="userSpaceOnUse" color-interpolation-filters="sRGB">
<feFlood flood-opacity="0" result="BackgroundImageFix"/>
<feColorMatrix in="SourceAlpha" type="matrix" values="0 0 0 0 0 0 0 0 0 0 0 0 0 0 0 0 0 0 127 0" result="hardAlpha"/>
<feOffset dy="1"/>
<feColorMatrix type="matrix" values="0 0 0 0 0 0 0 0 0 0 0 0 0 0 0 0 0 0 0.3 0"/>
<feBlend mode="normal" in2="BackgroundImageFix" result="effect1_dropShadow_144_3398"/>
<feBlend mode="normal" in="SourceGraphic" in2="effect1_dropShadow_144_3398" result="shape"/>
</filter>
<filter id="filter14_d_144_3398" x="249.75" y="62" width="32" height="44" filterUnits="userSpaceOnUse" color-interpolation-filters="sRGB">
<feFlood flood-opacity="0" result="BackgroundImageFix"/>
<feColorMatrix in="SourceAlpha" type="matrix" values="0 0 0 0 0 0 0 0 0 0 0 0 0 0 0 0 0 0 127 0" result="hardAlpha"/>
<feOffset dy="1"/>
<feColorMatrix type="matrix" values="0 0 0 0 0 0 0 0 0 0 0 0 0 0 0 0 0 0 0.3 0"/>
<feBlend mode="normal" in2="BackgroundImageFix" result="effect1_dropShadow_144_3398"/>
<feBlend mode="normal" in="SourceGraphic" in2="effect1_dropShadow_144_3398" result="shape"/>
</filter>
<filter id="filter15_d_144_3398" x="287.75" y="62" width="32" height="44" filterUnits="userSpaceOnUse" color-interpolation-filters="sRGB">
<feFlood flood-opacity="0" result="BackgroundImageFix"/>
<feColorMatrix in="SourceAlpha" type="matrix" values="0 0 0 0 0 0 0 0 0 0 0 0 0 0 0 0 0 0 127 0" result="hardAlpha"/>
<feOffset dy="1"/>
<feColorMatrix type="matrix" values="0 0 0 0 0 0 0 0 0 0 0 0 0 0 0 0 0 0 0.3 0"/>
<feBlend mode="normal" in2="BackgroundImageFix" result="effect1_dropShadow_144_3398"/>
<feBlend mode="normal" in="SourceGraphic" in2="effect1_dropShadow_144_3398" result="shape"/>
</filter>
<filter id="filter16_d_144_3398" x="325.75" y="62" width="32" height="44" filterUnits="userSpaceOnUse" color-interpolation-filters="sRGB">
<feFlood flood-opacity="0" result="BackgroundImageFix"/>
<feColorMatrix in="SourceAlpha" type="matrix" values="0 0 0 0 0 0 0 0 0 0 0 0 0 0 0 0 0 0 127 0" result="hardAlpha"/>
<feOffset dy="1"/>
<feColorMatrix type="matrix" values="0 0 0 0 0 0 0 0 0 0 0 0 0 0 0 0 0 0 0.3 0"/>
<feBlend mode="normal" in2="BackgroundImageFix" result="effect1_dropShadow_144_3398"/>
<feBlend mode="normal" in="SourceGraphic" in2="effect1_dropShadow_144_3398" result="shape"/>
</filter>
<filter id="filter17_d_144_3398" x="5" y="8" width="31" height="44" filterUnits="userSpaceOnUse" color-interpolation-filters="sRGB">
<feFlood flood-opacity="0" result="BackgroundImageFix"/>
<feColorMatrix in="SourceAlpha" type="matrix" values="0 0 0 0 0 0 0 0 0 0 0 0 0 0 0 0 0 0 127 0" result="hardAlpha"/>
<feOffset dy="1"/>
<feColorMatrix type="matrix" values="0 0 0 0 0 0 0 0 0 0 0 0 0 0 0 0 0 0 0.3 0"/>
<feBlend mode="normal" in2="BackgroundImageFix" result="effect1_dropShadow_144_3398"/>
<feBlend mode="normal" in="SourceGraphic" in2="effect1_dropShadow_144_3398" result="shape"/>
</filter>
<filter id="filter18_d_144_3398" x="42" y="8" width="31" height="44" filterUnits="userSpaceOnUse" color-interpolation-filters="sRGB">
<feFlood flood-opacity="0" result="BackgroundImageFix"/>
<feColorMatrix in="SourceAlpha" type="matrix" values="0 0 0 0 0 0 0 0 0 0 0 0 0 0 0 0 0 0 127 0" result="hardAlpha"/>
<feOffset dy="1"/>
<feColorMatrix type="matrix" values="0 0 0 0 0 0 0 0 0 0 0 0 0 0 0 0 0 0 0.3 0"/>
<feBlend mode="normal" in2="BackgroundImageFix" result="effect1_dropShadow_144_3398"/>
<feBlend mode="normal" in="SourceGraphic" in2="effect1_dropShadow_144_3398" result="shape"/>
</filter>
<filter id="filter19_d_144_3398" x="79" y="8" width="31" height="44" filterUnits="userSpaceOnUse" color-interpolation-filters="sRGB">
<feFlood flood-opacity="0" result="BackgroundImageFix"/>
<feColorMatrix in="SourceAlpha" type="matrix" values="0 0 0 0 0 0 0 0 0 0 0 0 0 0 0 0 0 0 127 0" result="hardAlpha"/>
<feOffset dy="1"/>
<feColorMatrix type="matrix" values="0 0 0 0 0 0 0 0 0 0 0 0 0 0 0 0 0 0 0.3 0"/>
<feBlend mode="normal" in2="BackgroundImageFix" result="effect1_dropShadow_144_3398"/>
<feBlend mode="normal" in="SourceGraphic" in2="effect1_dropShadow_144_3398" result="shape"/>
</filter>
<filter id="filter20_d_144_3398" x="116" y="8" width="31" height="44" filterUnits="userSpaceOnUse" color-interpolation-filters="sRGB">
<feFlood flood-opacity="0" result="BackgroundImageFix"/>
<feColorMatrix in="SourceAlpha" type="matrix" values="0 0 0 0 0 0 0 0 0 0 0 0 0 0 0 0 0 0 127 0" result="hardAlpha"/>
<feOffset dy="1"/>
<feColorMatrix type="matrix" values="0 0 0 0 0 0 0 0 0 0 0 0 0 0 0 0 0 0 0.3 0"/>
<feBlend mode="normal" in2="BackgroundImageFix" result="effect1_dropShadow_144_3398"/>
<feBlend mode="normal" in="SourceGraphic" in2="effect1_dropShadow_144_3398" result="shape"/>
</filter>
<filter id="filter21_d_144_3398" x="153" y="8" width="31" height="44" filterUnits="userSpaceOnUse" color-interpolation-filters="sRGB">
<feFlood flood-opacity="0" result="BackgroundImageFix"/>
<feColorMatrix in="SourceAlpha" type="matrix" values="0 0 0 0 0 0 0 0 0 0 0 0 0 0 0 0 0 0 127 0" result="hardAlpha"/>
<feOffset dy="1"/>
<feColorMatrix type="matrix" values="0 0 0 0 0 0 0 0 0 0 0 0 0 0 0 0 0 0 0.3 0"/>
<feBlend mode="normal" in2="BackgroundImageFix" result="effect1_dropShadow_144_3398"/>
<feBlend mode="normal" in="SourceGraphic" in2="effect1_dropShadow_144_3398" result="shape"/>
</filter>
<filter id="filter22_d_144_3398" x="190" y="8" width="31" height="44" filterUnits="userSpaceOnUse" color-interpolation-filters="sRGB">
<feFlood flood-opacity="0" result="BackgroundImageFix"/>
<feColorMatrix in="SourceAlpha" type="matrix" values="0 0 0 0 0 0 0 0 0 0 0 0 0 0 0 0 0 0 127 0" result="hardAlpha"/>
<feOffset dy="1"/>
<feColorMatrix type="matrix" values="0 0 0 0 0 0 0 0 0 0 0 0 0 0 0 0 0 0 0.3 0"/>
<feBlend mode="normal" in2="BackgroundImageFix" result="effect1_dropShadow_144_3398"/>
<feBlend mode="normal" in="SourceGraphic" in2="effect1_dropShadow_144_3398" result="shape"/>
</filter>
<filter id="filter23_d_144_3398" x="227" y="8" width="31" height="44" filterUnits="userSpaceOnUse" color-interpolation-filters="sRGB">
<feFlood flood-opacity="0" result="BackgroundImageFix"/>
<feColorMatrix in="SourceAlpha" type="matrix" values="0 0 0 0 0 0 0 0 0 0 0 0 0 0 0 0 0 0 127 0" result="hardAlpha"/>
<feOffset dy="1"/>
<feColorMatrix type="matrix" values="0 0 0 0 0 0 0 0 0 0 0 0 0 0 0 0 0 0 0.3 0"/>
<feBlend mode="normal" in2="BackgroundImageFix" result="effect1_dropShadow_144_3398"/>
<feBlend mode="normal" in="SourceGraphic" in2="effect1_dropShadow_144_3398" result="shape"/>
</filter>
<filter id="filter24_d_144_3398" x="264" y="8" width="31" height="44" filterUnits="userSpaceOnUse" color-interpolation-filters="sRGB">
<feFlood flood-opacity="0" result="BackgroundImageFix"/>
<feColorMatrix in="SourceAlpha" type="matrix" values="0 0 0 0 0 0 0 0 0 0 0 0 0 0 0 0 0 0 127 0" result="hardAlpha"/>
<feOffset dy="1"/>
<feColorMatrix type="matrix" values="0 0 0 0 0 0 0 0 0 0 0 0 0 0 0 0 0 0 0.3 0"/>
<feBlend mode="normal" in2="BackgroundImageFix" result="effect1_dropShadow_144_3398"/>
<feBlend mode="normal" in="SourceGraphic" in2="effect1_dropShadow_144_3398" result="shape"/>
</filter>
<filter id="filter25_d_144_3398" x="301" y="8" width="31" height="44" filterUnits="userSpaceOnUse" color-interpolation-filters="sRGB">
<feFlood flood-opacity="0" result="BackgroundImageFix"/>
<feColorMatrix in="SourceAlpha" type="matrix" values="0 0 0 0 0 0 0 0 0 0 0 0 0 0 0 0 0 0 127 0" result="hardAlpha"/>
<feOffset dy="1"/>
<feColorMatrix type="matrix" values="0 0 0 0 0 0 0 0 0 0 0 0 0 0 0 0 0 0 0.3 0"/>
<feBlend mode="normal" in2="BackgroundImageFix" result="effect1_dropShadow_144_3398"/>
<feBlend mode="normal" in="SourceGraphic" in2="effect1_dropShadow_144_3398" result="shape"/>
</filter>
<filter id="filter26_d_144_3398" x="338" y="8" width="31" height="44" filterUnits="userSpaceOnUse" color-interpolation-filters="sRGB">
<feFlood flood-opacity="0" result="BackgroundImageFix"/>
<feColorMatrix in="SourceAlpha" type="matrix" values="0 0 0 0 0 0 0 0 0 0 0 0 0 0 0 0 0 0 127 0" result="hardAlpha"/>
<feOffset dy="1"/>
<feColorMatrix type="matrix" values="0 0 0 0 0 0 0 0 0 0 0 0 0 0 0 0 0 0 0.3 0"/>
<feBlend mode="normal" in2="BackgroundImageFix" result="effect1_dropShadow_144_3398"/>
<feBlend mode="normal" in="SourceGraphic" in2="effect1_dropShadow_144_3398" result="shape"/>
</filter>
<filter id="filter27_d_144_3398" x="3" y="116" width="42" height="44" filterUnits="userSpaceOnUse" color-interpolation-filters="sRGB">
<feFlood flood-opacity="0" result="BackgroundImageFix"/>
<feColorMatrix in="SourceAlpha" type="matrix" values="0 0 0 0 0 0 0 0 0 0 0 0 0 0 0 0 0 0 127 0" result="hardAlpha"/>
<feOffset dy="1"/>
<feColorMatrix type="matrix" values="0 0 0 0 0 0 0 0 0 0 0 0 0 0 0 0 0 0 0.3 0"/>
<feBlend mode="normal" in2="BackgroundImageFix" result="effect1_dropShadow_144_3398"/>
<feBlend mode="normal" in="SourceGraphic" in2="effect1_dropShadow_144_3398" result="shape"/>
</filter>
<filter id="filter28_d_144_3398" x="330" y="116" width="42" height="43" filterUnits="userSpaceOnUse" color-interpolation-filters="sRGB">
<feFlood flood-opacity="0" result="BackgroundImageFix"/>
<feColorMatrix in="SourceAlpha" type="matrix" values="0 0 0 0 0 0 0 0 0 0 0 0 0 0 0 0 0 0 127 0" result="hardAlpha"/>
<feOffset dy="1"/>
<feColorMatrix type="matrix" values="0 0 0 0 0 0 0 0 0 0 0 0 0 0 0 0 0 0 0.3 0"/>
<feBlend mode="normal" in2="BackgroundImageFix" result="effect1_dropShadow_144_3398"/>
<feBlend mode="normal" in="SourceGraphic" in2="effect1_dropShadow_144_3398" result="shape"/>
</filter>
</defs>
</svg>
