<svg width="22" height="22" viewBox="0 0 22 22" fill="none" xmlns="http://www.w3.org/2000/svg">
<path d="M14.6498 0.895366C15.2918 1.16616 15.7458 1.65426 16.1527 2.36984L16.2868 2.61681L16.7843 3.62763L16.8006 3.65586L16.8155 3.68043L16.8577 3.74164C17.0844 4.00334 17.4637 4.16143 17.714 4.16143C20.0073 4.16143 21.8803 6.06997 21.9952 8.46929L22.0007 8.70296V15.4581C22.0007 18.5729 19.6795 21.1146 16.7708 21.2463L16.5337 21.2516H5.46773C2.52781 21.2516 0.12995 18.7921 0.00578331 15.7094L0.000732422 15.4581V8.70296C0.000732422 6.19509 1.92021 4.16143 4.28743 4.16143C4.53688 4.16143 4.91672 4.00311 5.14372 3.74164L5.15154 3.73187L5.16132 3.71828L5.21789 3.62633L5.71393 2.61713C6.15608 1.76556 6.63707 1.1963 7.3508 0.895256C8.65871 0.344141 13.3429 0.344141 14.6498 0.895366ZM7.96072 2.51995C7.71719 2.62266 7.49671 2.86042 7.26141 3.2726L7.15955 3.46004L6.73621 4.32743L6.63201 4.52726C6.54503 4.68058 6.45802 4.81001 6.35868 4.92472C5.85221 5.5081 5.12505 5.84504 4.47863 5.90148L4.28743 5.90997L4.10693 5.91641C2.7947 6.01044 1.74557 7.12197 1.65682 8.51178L1.65073 8.70296V15.4581C1.65073 17.6173 3.24765 19.3819 5.25831 19.4971L5.46773 19.5031H16.5337C18.5709 19.5031 20.2363 17.8101 20.3451 15.68L20.3507 15.4581V8.70296C20.3507 7.22512 19.2664 6.01472 17.8945 5.91641L17.714 5.90997L17.5225 5.90148C16.8751 5.84503 16.1479 5.508 15.6421 4.92394C15.5441 4.81075 15.4576 4.68225 15.3711 4.53022L15.3503 4.49254L15.3255 4.44573L15.1978 4.19191L14.8415 3.46037C14.601 2.99746 14.3806 2.71456 14.1428 2.57238L14.0396 2.51995L13.9084 2.47371C12.7763 2.13463 8.83858 2.15004 7.96072 2.51995ZM11.0004 7.70828C13.3876 7.70828 15.3223 9.75848 15.3223 12.2883C15.3223 14.8181 13.3876 16.8683 11.0004 16.8683C8.61317 16.8683 6.6785 14.8181 6.6785 12.2883C6.6785 9.75848 8.61317 7.70828 11.0004 7.70828ZM11.0004 9.45681C9.52444 9.45681 8.3285 10.7242 8.3285 12.2883C8.3285 13.8524 9.52444 15.1197 11.0004 15.1197C12.4764 15.1197 13.6723 13.8524 13.6723 12.2883C13.6723 10.7242 12.4764 9.45681 11.0004 9.45681ZM17.0555 6.89346C17.663 6.89346 18.1555 7.41536 18.1555 8.05915C18.1555 8.65696 17.7308 9.14966 17.1837 9.217L17.0555 9.22484C16.438 9.22484 15.9456 8.70294 15.9456 8.05915C15.9456 7.46134 16.3702 6.96864 16.9173 6.9013L17.0555 6.89346Z" fill="black"/>
</svg>
