<svg width="25" height="31" viewBox="0 0 25 31" fill="none" xmlns="http://www.w3.org/2000/svg">
<path fill-rule="evenodd" clip-rule="evenodd" d="M25 25.2635C25 30.4056 17.8662 31 12.5016 31L12.1177 30.9997C8.69982 30.9915 0 30.7782 0 25.2323C0 20.1951 6.84715 19.5219 12.1709 19.4965L12.8855 19.4961C16.3031 19.5043 25 19.7176 25 25.2635ZM12.5016 21.8359C5.77652 21.8359 2.36742 22.9779 2.36742 25.2323C2.36742 27.5069 5.77652 28.6598 12.5016 28.6598C19.2251 28.6598 22.6326 27.5178 22.6326 25.2635C22.6326 22.9888 19.2251 21.8359 12.5016 21.8359ZM12.5016 0C17.1228 0 20.8807 3.71618 20.8807 8.28418C20.8807 12.8522 17.1228 16.5668 12.5016 16.5668H12.4511C7.83933 16.5528 4.10354 12.835 4.11927 8.2795C4.11927 3.71618 7.87879 0 12.5016 0ZM12.5016 2.22784C9.12247 2.22784 6.37307 4.94399 6.37307 8.28418C6.36206 11.6135 9.09091 14.328 12.4558 14.3405L12.5016 15.4544V14.3405C15.8791 14.3405 18.6269 11.6228 18.6269 8.28418C18.6269 4.94399 15.8791 2.22784 12.5016 2.22784Z" fill="black"/>
</svg>
