<svg width="192" height="70" viewBox="0 0 192 70" fill="none" xmlns="http://www.w3.org/2000/svg">
<path d="M0 8C0 3.58172 3.58172 0 8 0H184C188.418 0 192 3.58172 192 8V70H8C3.58173 70 0 66.4183 0 62V8Z" fill="#FED215"/>
<path d="M10.96 12.6H12.1V16.068H16.372V12.6H17.512V21H16.372V17.148H12.1V21H10.96V12.6ZM21.8606 21.12C21.1886 21.12 20.6126 20.984 20.1326 20.712C19.6606 20.432 19.3006 20.056 19.0526 19.584C18.8046 19.112 18.6806 18.588 18.6806 18.012C18.6806 17.46 18.7926 16.956 19.0166 16.5C19.2486 16.036 19.5806 15.672 20.0126 15.408C20.4526 15.136 20.9686 15 21.5606 15C22.3126 15 22.9206 15.22 23.3846 15.66C23.8566 16.1 24.0926 16.708 24.0926 17.484C24.0926 17.684 24.0766 17.876 24.0446 18.06H19.7846C19.8566 18.82 20.0886 19.36 20.4806 19.68C20.8726 20 21.3766 20.16 21.9926 20.16C22.6086 20.16 23.1726 20.044 23.6846 19.812L23.8286 20.664C23.1486 20.968 22.4926 21.12 21.8606 21.12ZM22.9766 17.316C22.9766 16.892 22.8566 16.56 22.6166 16.32C22.3766 16.08 22.0166 15.96 21.5366 15.96C21.0726 15.96 20.7086 16.076 20.4446 16.308C20.1806 16.532 19.9926 16.868 19.8806 17.316H22.9766ZM26.9226 20.736L24.4746 15.12H25.6746L27.5106 19.488L29.1666 15.12H30.3666L26.7666 23.904H25.5666L26.9226 20.736ZM34.1045 12.6H35.2445V21H34.1045V12.6ZM42.5344 15C44.1344 15 44.9344 15.92 44.9344 17.76V21H43.8544V17.76C43.8544 17.128 43.7344 16.672 43.4944 16.392C43.2624 16.104 42.8704 15.96 42.3184 15.96C41.9664 15.96 41.6464 16.024 41.3584 16.152C41.0704 16.28 40.8544 16.472 40.7104 16.728V21H39.6304V15.12H40.4704L40.5904 15.744C40.9024 15.464 41.2144 15.272 41.5264 15.168C41.8464 15.056 42.1824 15 42.5344 15ZM48.9016 21.12C48.3016 21.12 47.7816 20.988 47.3416 20.724C46.9016 20.452 46.5656 20.084 46.3336 19.62C46.1016 19.156 45.9856 18.636 45.9856 18.06C45.9856 17.484 46.1016 16.964 46.3336 16.5C46.5656 16.036 46.9016 15.672 47.3416 15.408C47.7816 15.136 48.3016 15 48.9016 15C49.4936 15 50.0096 15.136 50.4496 15.408C50.8976 15.672 51.2376 16.036 51.4696 16.5C51.7016 16.964 51.8176 17.484 51.8176 18.06C51.8176 18.636 51.7016 19.156 51.4696 19.62C51.2376 20.084 50.8976 20.452 50.4496 20.724C50.0096 20.988 49.4936 21.12 48.9016 21.12ZM48.9016 20.16C49.4776 20.16 49.9216 19.976 50.2336 19.608C50.5536 19.24 50.7136 18.724 50.7136 18.06C50.7136 17.396 50.5536 16.88 50.2336 16.512C49.9216 16.144 49.4776 15.96 48.9016 15.96C48.3256 15.96 47.8776 16.144 47.5576 16.512C47.2456 16.88 47.0896 17.396 47.0896 18.06C47.0896 18.724 47.2456 19.24 47.5576 19.608C47.8776 19.976 48.3256 20.16 48.9016 20.16ZM54.8772 21.12C54.3572 21.12 53.9692 20.984 53.7132 20.712C53.4652 20.44 53.3412 20.108 53.3412 19.716V15.96H52.3332L52.4292 15.12H53.3412V13.668L54.4212 13.56V15.12H55.9692V15.96H54.4212V19.056C54.4212 19.464 54.4452 19.744 54.4932 19.896C54.5412 20.048 54.6412 20.148 54.7932 20.196C54.9532 20.236 55.2412 20.256 55.6572 20.256H55.9332L55.8492 21.12H54.8772ZM56.8922 12.6H57.9722V13.8H56.8922V12.6ZM56.8922 15.12H57.9722V21H56.8922V15.12ZM62.1351 21.12C61.4951 21.12 60.9431 20.988 60.4791 20.724C60.0231 20.46 59.6791 20.1 59.4471 19.644C59.2151 19.18 59.0991 18.664 59.0991 18.096C59.0991 17.168 59.3591 16.42 59.8791 15.852C60.4071 15.284 61.1871 15 62.2191 15C62.8271 15 63.3631 15.116 63.8271 15.348L63.6591 16.296C63.1711 16.072 62.6831 15.96 62.1951 15.96C61.5551 15.96 61.0631 16.144 60.7191 16.512C60.3751 16.872 60.2031 17.384 60.2031 18.048C60.2031 18.712 60.3671 19.232 60.6951 19.608C61.0311 19.984 61.5231 20.172 62.1711 20.172C62.6911 20.172 63.1911 20.052 63.6711 19.812L63.8151 20.676C63.6391 20.796 63.3951 20.9 63.0831 20.988C62.7791 21.076 62.4631 21.12 62.1351 21.12ZM67.6223 21.12C66.9503 21.12 66.3743 20.984 65.8943 20.712C65.4223 20.432 65.0623 20.056 64.8143 19.584C64.5663 19.112 64.4423 18.588 64.4423 18.012C64.4423 17.46 64.5543 16.956 64.7783 16.5C65.0103 16.036 65.3423 15.672 65.7743 15.408C66.2143 15.136 66.7303 15 67.3223 15C68.0743 15 68.6823 15.22 69.1463 15.66C69.6183 16.1 69.8543 16.708 69.8543 17.484C69.8543 17.684 69.8383 17.876 69.8063 18.06H65.5463C65.6183 18.82 65.8503 19.36 66.2423 19.68C66.6343 20 67.1383 20.16 67.7543 20.16C68.3703 20.16 68.9343 20.044 69.4463 19.812L69.5903 20.664C68.9103 20.968 68.2543 21.12 67.6223 21.12ZM68.7383 17.316C68.7383 16.892 68.6183 16.56 68.3783 16.32C68.1383 16.08 67.7783 15.96 67.2983 15.96C66.8343 15.96 66.4703 16.076 66.2063 16.308C65.9423 16.532 65.7543 16.868 65.6423 17.316H68.7383ZM76.1509 12V21H75.1909L75.0709 20.28C74.8709 20.552 74.6109 20.76 74.2909 20.904C73.9709 21.048 73.6309 21.12 73.2709 21.12C72.7749 21.12 72.3229 20.984 71.9149 20.712C71.5069 20.44 71.1829 20.072 70.9429 19.608C70.7109 19.144 70.5949 18.632 70.5949 18.072C70.5949 17.528 70.7029 17.02 70.9189 16.548C71.1429 16.076 71.4589 15.7 71.8669 15.42C72.2749 15.14 72.7429 15 73.2709 15C73.6229 15 73.9549 15.064 74.2669 15.192C74.5789 15.32 74.8469 15.516 75.0709 15.78V12H76.1509ZM73.4629 20.16C73.7509 20.16 74.0269 20.088 74.2909 19.944C74.5549 19.792 74.7709 19.56 74.9389 19.248C75.1069 18.936 75.1909 18.544 75.1909 18.072C75.1909 17.632 75.1069 17.252 74.9389 16.932C74.7709 16.612 74.5509 16.372 74.2789 16.212C74.0149 16.044 73.7429 15.96 73.4629 15.96C72.9189 15.96 72.4869 16.16 72.1669 16.56C71.8549 16.952 71.6989 17.456 71.6989 18.072C71.6989 18.664 71.8589 19.16 72.1789 19.56C72.4989 19.96 72.9269 20.16 73.4629 20.16ZM82.3225 21.12C81.8025 21.12 81.4145 20.984 81.1585 20.712C80.9105 20.44 80.7865 20.108 80.7865 19.716V15.96H79.7785L79.8745 15.12H80.7865V13.668L81.8665 13.56V15.12H83.4145V15.96H81.8665V19.056C81.8665 19.464 81.8905 19.744 81.9385 19.896C81.9865 20.048 82.0865 20.148 82.2385 20.196C82.3985 20.236 82.6865 20.256 83.1025 20.256H83.3785L83.2945 21.12H82.3225ZM87.1455 15C87.8895 15 88.4575 15.244 88.8495 15.732C89.2415 16.22 89.4375 16.884 89.4375 17.724V21H88.3575V17.856C88.3575 17.208 88.2375 16.732 87.9975 16.428C87.7655 16.116 87.4015 15.96 86.9055 15.96C86.6015 15.96 86.3215 16.032 86.0655 16.176C85.8095 16.312 85.5935 16.508 85.4175 16.764V21H84.3255V12H85.4175V15.684C85.6495 15.46 85.9015 15.292 86.1735 15.18C86.4535 15.06 86.7775 15 87.1455 15ZM93.6614 21.12C92.9894 21.12 92.4134 20.984 91.9334 20.712C91.4614 20.432 91.1014 20.056 90.8534 19.584C90.6054 19.112 90.4814 18.588 90.4814 18.012C90.4814 17.46 90.5934 16.956 90.8174 16.5C91.0494 16.036 91.3814 15.672 91.8134 15.408C92.2534 15.136 92.7694 15 93.3614 15C94.1134 15 94.7214 15.22 95.1854 15.66C95.6574 16.1 95.8934 16.708 95.8934 17.484C95.8934 17.684 95.8774 17.876 95.8454 18.06H91.5854C91.6574 18.82 91.8894 19.36 92.2814 19.68C92.6734 20 93.1774 20.16 93.7934 20.16C94.4094 20.16 94.9734 20.044 95.4854 19.812L95.6294 20.664C94.9494 20.968 94.2934 21.12 93.6614 21.12ZM94.7774 17.316C94.7774 16.892 94.6574 16.56 94.4174 16.32C94.1774 16.08 93.8174 15.96 93.3374 15.96C92.8734 15.96 92.5094 16.076 92.2454 16.308C91.9814 16.532 91.7934 16.868 91.6814 17.316H94.7774ZM102.245 21.12C101.645 21.12 101.125 20.988 100.685 20.724C100.245 20.452 99.9093 20.084 99.6773 19.62C99.4453 19.156 99.3293 18.636 99.3293 18.06C99.3293 17.484 99.4453 16.964 99.6773 16.5C99.9093 16.036 100.245 15.672 100.685 15.408C101.125 15.136 101.645 15 102.245 15C102.837 15 103.353 15.136 103.793 15.408C104.241 15.672 104.581 16.036 104.813 16.5C105.045 16.964 105.161 17.484 105.161 18.06C105.161 18.636 105.045 19.156 104.813 19.62C104.581 20.084 104.241 20.452 103.793 20.724C103.353 20.988 102.837 21.12 102.245 21.12ZM102.245 20.16C102.821 20.16 103.265 19.976 103.577 19.608C103.897 19.24 104.057 18.724 104.057 18.06C104.057 17.396 103.897 16.88 103.577 16.512C103.265 16.144 102.821 15.96 102.245 15.96C101.669 15.96 101.221 16.144 100.901 16.512C100.589 16.88 100.433 17.396 100.433 18.06C100.433 18.724 100.589 19.24 100.901 19.608C101.221 19.976 101.669 20.16 102.245 20.16ZM111.099 15.12V21H110.139L110.019 20.352C109.827 20.616 109.599 20.812 109.335 20.94C109.079 21.06 108.763 21.12 108.387 21.12C107.683 21.12 107.143 20.908 106.767 20.484C106.399 20.052 106.215 19.404 106.215 18.54V15.12H107.295V18.24C107.295 18.88 107.403 19.36 107.619 19.68C107.843 20 108.191 20.16 108.663 20.16C108.943 20.16 109.203 20.104 109.443 19.992C109.691 19.88 109.883 19.716 110.019 19.5V15.12H111.099ZM114.596 21.12C114.076 21.12 113.688 20.984 113.432 20.712C113.184 20.44 113.06 20.108 113.06 19.716V15.96H112.052L112.148 15.12H113.06V13.668L114.14 13.56V15.12H115.688V15.96H114.14V19.056C114.14 19.464 114.164 19.744 114.212 19.896C114.26 20.048 114.36 20.148 114.512 20.196C114.672 20.236 114.96 20.256 115.376 20.256H115.652L115.568 21.12H114.596ZM118.123 21.12C117.595 21.12 117.207 20.984 116.959 20.712C116.719 20.44 116.599 20.104 116.599 19.704V12H117.679V19.08C117.679 19.432 117.699 19.688 117.739 19.848C117.787 20.008 117.875 20.116 118.003 20.172C118.131 20.228 118.339 20.256 118.627 20.256L118.471 21.12H118.123ZM122.208 21.12C121.536 21.12 120.96 20.984 120.48 20.712C120.008 20.432 119.648 20.056 119.4 19.584C119.152 19.112 119.028 18.588 119.028 18.012C119.028 17.46 119.14 16.956 119.364 16.5C119.596 16.036 119.928 15.672 120.36 15.408C120.8 15.136 121.316 15 121.908 15C122.66 15 123.268 15.22 123.732 15.66C124.204 16.1 124.44 16.708 124.44 17.484C124.44 17.684 124.424 17.876 124.392 18.06H120.132C120.204 18.82 120.436 19.36 120.828 19.68C121.22 20 121.724 20.16 122.34 20.16C122.956 20.16 123.52 20.044 124.032 19.812L124.176 20.664C123.496 20.968 122.84 21.12 122.208 21.12ZM123.324 17.316C123.324 16.892 123.204 16.56 122.964 16.32C122.724 16.08 122.364 15.96 121.884 15.96C121.42 15.96 121.056 16.076 120.792 16.308C120.528 16.532 120.34 16.868 120.228 17.316H123.324ZM127.557 21.12C127.037 21.12 126.649 20.984 126.393 20.712C126.145 20.44 126.021 20.108 126.021 19.716V15.96H125.013L125.109 15.12H126.021V13.668L127.101 13.56V15.12H128.649V15.96H127.101V19.056C127.101 19.464 127.125 19.744 127.173 19.896C127.221 20.048 127.321 20.148 127.473 20.196C127.633 20.236 127.921 20.256 128.337 20.256H128.613L128.529 21.12H127.557ZM131.679 15.12H132.951L134.079 19.812L135.327 15.3H136.443L137.703 19.812L138.831 15.12H140.103L138.327 21H137.115L135.891 16.656L134.655 21H133.443L131.679 15.12ZM142.284 21.12C141.74 21.12 141.3 20.96 140.964 20.64C140.636 20.32 140.472 19.912 140.472 19.416C140.472 18.672 140.824 18.14 141.528 17.82C142.232 17.5 143.052 17.332 143.988 17.316C143.988 16.788 143.884 16.432 143.676 16.248C143.476 16.056 143.152 15.96 142.704 15.96C142.456 15.96 142.208 16 141.96 16.08C141.712 16.152 141.444 16.288 141.156 16.488L141 15.612C141.24 15.428 141.536 15.28 141.888 15.168C142.24 15.056 142.608 15 142.992 15C143.496 15 143.896 15.088 144.192 15.264C144.496 15.44 144.716 15.732 144.852 16.14C144.996 16.548 145.068 17.108 145.068 17.82V19.02C145.068 19.34 145.08 19.584 145.104 19.752C145.136 19.912 145.2 20.036 145.296 20.124C145.392 20.212 145.54 20.256 145.74 20.256H145.848L145.68 21.12H145.596C145.26 21.12 144.996 21.088 144.804 21.024C144.612 20.96 144.464 20.868 144.36 20.748C144.264 20.628 144.172 20.464 144.084 20.256C143.588 20.832 142.988 21.12 142.284 21.12ZM142.488 20.256C142.776 20.256 143.052 20.184 143.316 20.04C143.588 19.896 143.812 19.704 143.988 19.464V18.06C143.124 18.092 142.504 18.208 142.128 18.408C141.76 18.6 141.576 18.916 141.576 19.356C141.576 19.66 141.656 19.888 141.816 20.04C141.984 20.184 142.208 20.256 142.488 20.256ZM148.349 21.12C147.885 21.12 147.477 21.068 147.125 20.964C146.781 20.852 146.517 20.732 146.333 20.604L146.465 19.56C146.625 19.704 146.869 19.84 147.197 19.968C147.533 20.096 147.901 20.16 148.301 20.16C148.677 20.16 148.965 20.096 149.165 19.968C149.373 19.84 149.477 19.66 149.477 19.428C149.477 19.156 149.365 18.952 149.141 18.816C148.917 18.672 148.637 18.552 148.301 18.456C147.933 18.36 147.621 18.26 147.365 18.156C147.117 18.044 146.901 17.876 146.717 17.652C146.541 17.428 146.453 17.132 146.453 16.764C146.453 16.26 146.633 15.84 146.993 15.504C147.353 15.168 147.909 15 148.661 15C149.005 15 149.297 15.036 149.537 15.108C149.777 15.172 150.017 15.264 150.257 15.384L150.125 16.368C149.933 16.208 149.721 16.084 149.489 15.996C149.257 15.9 148.989 15.852 148.685 15.852C148.333 15.852 148.053 15.92 147.845 16.056C147.645 16.184 147.545 16.38 147.545 16.644C147.545 16.82 147.593 16.964 147.689 17.076C147.785 17.18 147.921 17.268 148.097 17.34C148.273 17.412 148.545 17.504 148.913 17.616C149.369 17.752 149.761 17.944 150.089 18.192C150.425 18.44 150.593 18.832 150.593 19.368C150.593 19.848 150.421 20.26 150.077 20.604C149.741 20.948 149.165 21.12 148.349 21.12ZM13.72 33C14.24 33 14.692 33.136 15.076 33.408C15.468 33.672 15.768 34.036 15.976 34.5C16.184 34.964 16.288 35.484 16.288 36.06C16.288 36.644 16.188 37.168 15.988 37.632C15.796 38.088 15.508 38.452 15.124 38.724C14.74 38.988 14.272 39.12 13.72 39.12C13.312 39.12 12.94 39.048 12.604 38.904C12.268 38.76 12.004 38.552 11.812 38.28V41.904H10.732V33.12H11.572L11.692 33.936C12.188 33.312 12.864 33 13.72 33ZM13.516 38.16C14.036 38.16 14.444 37.976 14.74 37.608C15.036 37.232 15.184 36.716 15.184 36.06C15.184 35.404 15.036 34.892 14.74 34.524C14.444 34.148 14.036 33.96 13.516 33.96C13.004 33.96 12.58 34.14 12.244 34.5C11.916 34.86 11.752 35.38 11.752 36.06C11.752 36.764 11.916 37.292 12.244 37.644C12.572 37.988 12.996 38.16 13.516 38.16ZM18.9237 39.12C18.3957 39.12 18.0077 38.984 17.7597 38.712C17.5197 38.44 17.3997 38.104 17.3997 37.704V30H18.4797V37.08C18.4797 37.432 18.4997 37.688 18.5397 37.848C18.5877 38.008 18.6757 38.116 18.8037 38.172C18.9317 38.228 19.1397 38.256 19.4277 38.256L19.2717 39.12H18.9237ZM21.6156 39.12C21.0716 39.12 20.6316 38.96 20.2956 38.64C19.9676 38.32 19.8036 37.912 19.8036 37.416C19.8036 36.672 20.1556 36.14 20.8596 35.82C21.5636 35.5 22.3836 35.332 23.3196 35.316C23.3196 34.788 23.2156 34.432 23.0076 34.248C22.8076 34.056 22.4836 33.96 22.0356 33.96C21.7876 33.96 21.5396 34 21.2916 34.08C21.0436 34.152 20.7756 34.288 20.4876 34.488L20.3316 33.612C20.5716 33.428 20.8676 33.28 21.2196 33.168C21.5716 33.056 21.9396 33 22.3236 33C22.8276 33 23.2276 33.088 23.5236 33.264C23.8276 33.44 24.0476 33.732 24.1836 34.14C24.3276 34.548 24.3996 35.108 24.3996 35.82V37.02C24.3996 37.34 24.4116 37.584 24.4356 37.752C24.4676 37.912 24.5316 38.036 24.6276 38.124C24.7236 38.212 24.8716 38.256 25.0716 38.256H25.1796L25.0116 39.12H24.9276C24.5916 39.12 24.3276 39.088 24.1356 39.024C23.9436 38.96 23.7956 38.868 23.6916 38.748C23.5956 38.628 23.5036 38.464 23.4156 38.256C22.9196 38.832 22.3196 39.12 21.6156 39.12ZM21.8196 38.256C22.1076 38.256 22.3836 38.184 22.6476 38.04C22.9196 37.896 23.1436 37.704 23.3196 37.464V36.06C22.4556 36.092 21.8356 36.208 21.4596 36.408C21.0916 36.6 20.9076 36.916 20.9076 37.356C20.9076 37.66 20.9876 37.888 21.1476 38.04C21.3156 38.184 21.5396 38.256 21.8196 38.256ZM28.7133 39.12C28.0733 39.12 27.5213 38.988 27.0573 38.724C26.6013 38.46 26.2573 38.1 26.0253 37.644C25.7933 37.18 25.6772 36.664 25.6772 36.096C25.6772 35.168 25.9373 34.42 26.4573 33.852C26.9853 33.284 27.7653 33 28.7973 33C29.4053 33 29.9413 33.116 30.4053 33.348L30.2373 34.296C29.7493 34.072 29.2613 33.96 28.7733 33.96C28.1333 33.96 27.6413 34.144 27.2973 34.512C26.9533 34.872 26.7812 35.384 26.7812 36.048C26.7812 36.712 26.9453 37.232 27.2733 37.608C27.6093 37.984 28.1013 38.172 28.7493 38.172C29.2693 38.172 29.7693 38.052 30.2493 37.812L30.3933 38.676C30.2173 38.796 29.9733 38.9 29.6613 38.988C29.3573 39.076 29.0413 39.12 28.7133 39.12ZM34.2004 39.12C33.5284 39.12 32.9524 38.984 32.4724 38.712C32.0004 38.432 31.6404 38.056 31.3924 37.584C31.1444 37.112 31.0204 36.588 31.0204 36.012C31.0204 35.46 31.1324 34.956 31.3564 34.5C31.5884 34.036 31.9204 33.672 32.3524 33.408C32.7924 33.136 33.3084 33 33.9004 33C34.6524 33 35.2604 33.22 35.7244 33.66C36.1964 34.1 36.4324 34.708 36.4324 35.484C36.4324 35.684 36.4164 35.876 36.3844 36.06H32.1244C32.1964 36.82 32.4284 37.36 32.8204 37.68C33.2124 38 33.7164 38.16 34.3324 38.16C34.9484 38.16 35.5124 38.044 36.0244 37.812L36.1684 38.664C35.4884 38.968 34.8324 39.12 34.2004 39.12ZM35.3164 35.316C35.3164 34.892 35.1964 34.56 34.9564 34.32C34.7164 34.08 34.3564 33.96 33.8764 33.96C33.4124 33.96 33.0484 34.076 32.7844 34.308C32.5204 34.532 32.3324 34.868 32.2204 35.316H35.3164ZM42.7291 30V39H41.7691L41.6491 38.28C41.4491 38.552 41.1891 38.76 40.8691 38.904C40.5491 39.048 40.2091 39.12 39.8491 39.12C39.3531 39.12 38.9011 38.984 38.4931 38.712C38.0851 38.44 37.7611 38.072 37.5211 37.608C37.2891 37.144 37.1731 36.632 37.1731 36.072C37.1731 35.528 37.2811 35.02 37.4971 34.548C37.7211 34.076 38.0371 33.7 38.4451 33.42C38.8531 33.14 39.3211 33 39.8491 33C40.2011 33 40.5331 33.064 40.8451 33.192C41.1571 33.32 41.4251 33.516 41.6491 33.78V30H42.7291ZM40.0411 38.16C40.3291 38.16 40.6051 38.088 40.8691 37.944C41.1331 37.792 41.3491 37.56 41.5171 37.248C41.6851 36.936 41.7691 36.544 41.7691 36.072C41.7691 35.632 41.6851 35.252 41.5171 34.932C41.3491 34.612 41.1291 34.372 40.8571 34.212C40.5931 34.044 40.3211 33.96 40.0411 33.96C39.4971 33.96 39.0651 34.16 38.7451 34.56C38.4331 34.952 38.2771 35.456 38.2771 36.072C38.2771 36.664 38.4371 37.16 38.7571 37.56C39.0771 37.96 39.5051 38.16 40.0411 38.16ZM46.2486 33.12H47.4486L49.0926 37.812L50.7246 33.12H51.9366L49.7046 39H48.4926L46.2486 33.12ZM55.4934 39.12C54.8214 39.12 54.2454 38.984 53.7654 38.712C53.2934 38.432 52.9334 38.056 52.6854 37.584C52.4374 37.112 52.3134 36.588 52.3134 36.012C52.3134 35.46 52.4254 34.956 52.6494 34.5C52.8814 34.036 53.2134 33.672 53.6454 33.408C54.0854 33.136 54.6014 33 55.1934 33C55.9454 33 56.5534 33.22 57.0174 33.66C57.4894 34.1 57.7254 34.708 57.7254 35.484C57.7254 35.684 57.7094 35.876 57.6774 36.06H53.4174C53.4894 36.82 53.7214 37.36 54.1134 37.68C54.5054 38 55.0094 38.16 55.6254 38.16C56.2414 38.16 56.8054 38.044 57.3174 37.812L57.4614 38.664C56.7814 38.968 56.1254 39.12 55.4934 39.12ZM56.6094 35.316C56.6094 34.892 56.4894 34.56 56.2494 34.32C56.0094 34.08 55.6494 33.96 55.1694 33.96C54.7054 33.96 54.3414 34.076 54.0774 34.308C53.8134 34.532 53.6254 34.868 53.5134 35.316H56.6094ZM58.814 33.12H59.702L59.834 34.092C60.138 33.716 60.426 33.44 60.698 33.264C60.978 33.088 61.27 33 61.574 33C61.67 33 61.762 33.012 61.85 33.036L61.742 34.224C61.638 34.2 61.518 34.188 61.382 34.188C61.086 34.188 60.806 34.256 60.542 34.392C60.278 34.52 60.086 34.672 59.966 34.848V39H58.814V33.12ZM64.6389 39.12C64.1189 39.12 63.7309 38.984 63.4749 38.712C63.2269 38.44 63.1029 38.108 63.1029 37.716V33.96H62.0949L62.1909 33.12H63.1029V31.668L64.1829 31.56V33.12H65.7309V33.96H64.1829V37.056C64.1829 37.464 64.2069 37.744 64.2549 37.896C64.3029 38.048 64.4029 38.148 64.5549 38.196C64.7149 38.236 65.0029 38.256 65.4189 38.256H65.6949L65.6109 39.12H64.6389ZM66.6539 30.6H67.7339V31.8H66.6539V30.6ZM66.6539 33.12H67.7339V39H66.6539V33.12ZM71.8968 39.12C71.2568 39.12 70.7048 38.988 70.2408 38.724C69.7848 38.46 69.4408 38.1 69.2088 37.644C68.9768 37.18 68.8608 36.664 68.8608 36.096C68.8608 35.168 69.1208 34.42 69.6408 33.852C70.1688 33.284 70.9488 33 71.9808 33C72.5888 33 73.1248 33.116 73.5888 33.348L73.4208 34.296C72.9328 34.072 72.4448 33.96 71.9568 33.96C71.3168 33.96 70.8248 34.144 70.4808 34.512C70.1368 34.872 69.9648 35.384 69.9648 36.048C69.9648 36.712 70.1288 37.232 70.4568 37.608C70.7928 37.984 71.2848 38.172 71.9328 38.172C72.4528 38.172 72.9528 38.052 73.4328 37.812L73.5768 38.676C73.4008 38.796 73.1568 38.9 72.8448 38.988C72.5408 39.076 72.2248 39.12 71.8968 39.12ZM76.0141 39.12C75.4701 39.12 75.0301 38.96 74.6941 38.64C74.3661 38.32 74.2021 37.912 74.2021 37.416C74.2021 36.672 74.5541 36.14 75.2581 35.82C75.9621 35.5 76.7821 35.332 77.7181 35.316C77.7181 34.788 77.6141 34.432 77.4061 34.248C77.2061 34.056 76.8821 33.96 76.4341 33.96C76.1861 33.96 75.9381 34 75.6901 34.08C75.4421 34.152 75.1741 34.288 74.8861 34.488L74.7301 33.612C74.9701 33.428 75.2661 33.28 75.6181 33.168C75.9701 33.056 76.3381 33 76.7221 33C77.2261 33 77.6261 33.088 77.9221 33.264C78.2261 33.44 78.4461 33.732 78.5821 34.14C78.7261 34.548 78.7981 35.108 78.7981 35.82V37.02C78.7981 37.34 78.8101 37.584 78.8341 37.752C78.8661 37.912 78.9301 38.036 79.0261 38.124C79.1221 38.212 79.2701 38.256 79.4701 38.256H79.5781L79.4101 39.12H79.3261C78.9901 39.12 78.7261 39.088 78.5341 39.024C78.3421 38.96 78.1941 38.868 78.0901 38.748C77.9941 38.628 77.9021 38.464 77.8141 38.256C77.3181 38.832 76.7181 39.12 76.0141 39.12ZM76.2181 38.256C76.5061 38.256 76.7821 38.184 77.0461 38.04C77.3181 37.896 77.5421 37.704 77.7181 37.464V36.06C76.8541 36.092 76.2341 36.208 75.8581 36.408C75.4901 36.6 75.3061 36.916 75.3061 37.356C75.3061 37.66 75.3861 37.888 75.5461 38.04C75.7141 38.184 75.9381 38.256 76.2181 38.256ZM81.9237 39.12C81.3957 39.12 81.0077 38.984 80.7597 38.712C80.5197 38.44 80.3997 38.104 80.3997 37.704V30H81.4797V37.08C81.4797 37.432 81.4997 37.688 81.5397 37.848C81.5877 38.008 81.6757 38.116 81.8037 38.172C81.9317 38.228 82.1397 38.256 82.4277 38.256L82.2717 39.12H81.9237ZM85.9429 30.6H87.0229V31.8H85.9429V30.6ZM85.9429 33.12H87.0229V39H85.9429V33.12ZM91.3899 33C92.9899 33 93.7899 33.92 93.7899 35.76V39H92.7099V35.76C92.7099 35.128 92.5899 34.672 92.3499 34.392C92.1179 34.104 91.7259 33.96 91.1739 33.96C90.8219 33.96 90.5019 34.024 90.2139 34.152C89.9259 34.28 89.7099 34.472 89.5659 34.728V39H88.4859V33.12H89.3259L89.4459 33.744C89.7579 33.464 90.0699 33.272 90.3819 33.168C90.7019 33.056 91.0379 33 91.3899 33ZM96.857 39.12C96.393 39.12 95.985 39.068 95.633 38.964C95.289 38.852 95.025 38.732 94.841 38.604L94.973 37.56C95.133 37.704 95.377 37.84 95.705 37.968C96.041 38.096 96.409 38.16 96.809 38.16C97.185 38.16 97.473 38.096 97.673 37.968C97.881 37.84 97.985 37.66 97.985 37.428C97.985 37.156 97.873 36.952 97.649 36.816C97.425 36.672 97.145 36.552 96.809 36.456C96.441 36.36 96.129 36.26 95.873 36.156C95.625 36.044 95.409 35.876 95.225 35.652C95.049 35.428 94.961 35.132 94.961 34.764C94.961 34.26 95.141 33.84 95.501 33.504C95.861 33.168 96.417 33 97.169 33C97.513 33 97.805 33.036 98.045 33.108C98.285 33.172 98.525 33.264 98.765 33.384L98.633 34.368C98.441 34.208 98.229 34.084 97.997 33.996C97.765 33.9 97.497 33.852 97.193 33.852C96.841 33.852 96.561 33.92 96.353 34.056C96.153 34.184 96.053 34.38 96.053 34.644C96.053 34.82 96.101 34.964 96.197 35.076C96.293 35.18 96.429 35.268 96.605 35.34C96.781 35.412 97.053 35.504 97.421 35.616C97.877 35.752 98.269 35.944 98.597 36.192C98.933 36.44 99.101 36.832 99.101 37.368C99.101 37.848 98.929 38.26 98.585 38.604C98.249 38.948 97.673 39.12 96.857 39.12ZM102.186 39.12C101.666 39.12 101.278 38.984 101.022 38.712C100.774 38.44 100.65 38.108 100.65 37.716V33.96H99.6418L99.7378 33.12H100.65V31.668L101.73 31.56V33.12H103.278V33.96H101.73V37.056C101.73 37.464 101.754 37.744 101.802 37.896C101.85 38.048 101.95 38.148 102.102 38.196C102.262 38.236 102.55 38.256 102.966 38.256H103.242L103.158 39.12H102.186ZM106.974 39.12C106.302 39.12 105.726 38.984 105.246 38.712C104.774 38.432 104.414 38.056 104.166 37.584C103.918 37.112 103.794 36.588 103.794 36.012C103.794 35.46 103.906 34.956 104.13 34.5C104.362 34.036 104.694 33.672 105.126 33.408C105.566 33.136 106.082 33 106.674 33C107.426 33 108.034 33.22 108.498 33.66C108.97 34.1 109.206 34.708 109.206 35.484C109.206 35.684 109.19 35.876 109.158 36.06H104.898C104.97 36.82 105.202 37.36 105.594 37.68C105.986 38 106.49 38.16 107.106 38.16C107.722 38.16 108.286 38.044 108.798 37.812L108.942 38.664C108.262 38.968 107.606 39.12 106.974 39.12ZM108.09 35.316C108.09 34.892 107.97 34.56 107.73 34.32C107.49 34.08 107.13 33.96 106.65 33.96C106.186 33.96 105.822 34.076 105.558 34.308C105.294 34.532 105.106 34.868 104.994 35.316H108.09ZM111.663 39.12C111.119 39.12 110.679 38.96 110.343 38.64C110.015 38.32 109.851 37.912 109.851 37.416C109.851 36.672 110.203 36.14 110.907 35.82C111.611 35.5 112.431 35.332 113.367 35.316C113.367 34.788 113.263 34.432 113.055 34.248C112.855 34.056 112.531 33.96 112.083 33.96C111.835 33.96 111.587 34 111.339 34.08C111.091 34.152 110.823 34.288 110.535 34.488L110.379 33.612C110.619 33.428 110.915 33.28 111.267 33.168C111.619 33.056 111.987 33 112.371 33C112.875 33 113.275 33.088 113.571 33.264C113.875 33.44 114.095 33.732 114.231 34.14C114.375 34.548 114.447 35.108 114.447 35.82V37.02C114.447 37.34 114.459 37.584 114.483 37.752C114.515 37.912 114.579 38.036 114.675 38.124C114.771 38.212 114.919 38.256 115.119 38.256H115.227L115.059 39.12H114.975C114.639 39.12 114.375 39.088 114.183 39.024C113.991 38.96 113.843 38.868 113.739 38.748C113.643 38.628 113.551 38.464 113.463 38.256C112.967 38.832 112.367 39.12 111.663 39.12ZM111.867 38.256C112.155 38.256 112.431 38.184 112.695 38.04C112.967 37.896 113.191 37.704 113.367 37.464V36.06C112.503 36.092 111.883 36.208 111.507 36.408C111.139 36.6 110.955 36.916 110.955 37.356C110.955 37.66 111.035 37.888 111.195 38.04C111.363 38.184 111.587 38.256 111.867 38.256ZM121.268 30V39H120.308L120.188 38.28C119.988 38.552 119.728 38.76 119.408 38.904C119.088 39.048 118.748 39.12 118.388 39.12C117.892 39.12 117.44 38.984 117.032 38.712C116.624 38.44 116.3 38.072 116.06 37.608C115.828 37.144 115.712 36.632 115.712 36.072C115.712 35.528 115.82 35.02 116.036 34.548C116.26 34.076 116.576 33.7 116.984 33.42C117.392 33.14 117.86 33 118.388 33C118.74 33 119.072 33.064 119.384 33.192C119.696 33.32 119.964 33.516 120.188 33.78V30H121.268ZM118.58 38.16C118.868 38.16 119.144 38.088 119.408 37.944C119.672 37.792 119.888 37.56 120.056 37.248C120.224 36.936 120.308 36.544 120.308 36.072C120.308 35.632 120.224 35.252 120.056 34.932C119.888 34.612 119.668 34.372 119.396 34.212C119.132 34.044 118.86 33.96 118.58 33.96C118.036 33.96 117.604 34.16 117.284 34.56C116.972 34.952 116.816 35.456 116.816 36.072C116.816 36.664 116.976 37.16 117.296 37.56C117.616 37.96 118.044 38.16 118.58 38.16ZM127.98 39.12C127.38 39.12 126.86 38.988 126.42 38.724C125.98 38.452 125.644 38.084 125.412 37.62C125.18 37.156 125.064 36.636 125.064 36.06C125.064 35.484 125.18 34.964 125.412 34.5C125.644 34.036 125.98 33.672 126.42 33.408C126.86 33.136 127.38 33 127.98 33C128.572 33 129.088 33.136 129.528 33.408C129.976 33.672 130.316 34.036 130.548 34.5C130.78 34.964 130.896 35.484 130.896 36.06C130.896 36.636 130.78 37.156 130.548 37.62C130.316 38.084 129.976 38.452 129.528 38.724C129.088 38.988 128.572 39.12 127.98 39.12ZM127.98 38.16C128.556 38.16 129 37.976 129.312 37.608C129.632 37.24 129.792 36.724 129.792 36.06C129.792 35.396 129.632 34.88 129.312 34.512C129 34.144 128.556 33.96 127.98 33.96C127.404 33.96 126.956 34.144 126.636 34.512C126.324 34.88 126.168 35.396 126.168 36.06C126.168 36.724 126.324 37.24 126.636 37.608C126.956 37.976 127.404 38.16 127.98 38.16ZM132.359 33.96H131.339L131.483 33.12H132.359V31.728C132.359 31.192 132.499 30.772 132.779 30.468C133.067 30.156 133.479 30 134.015 30C134.367 30 134.679 30.052 134.951 30.156L134.783 31.068C134.591 30.996 134.391 30.96 134.183 30.96C133.687 30.96 133.439 31.24 133.439 31.8V33.12H135.023V33.96H133.439V39H132.359V33.96ZM13.54 51C14.284 51 14.852 51.244 15.244 51.732C15.636 52.22 15.832 52.884 15.832 53.724V57H14.752V53.856C14.752 53.208 14.632 52.732 14.392 52.428C14.16 52.116 13.796 51.96 13.3 51.96C12.996 51.96 12.716 52.032 12.46 52.176C12.204 52.312 11.988 52.508 11.812 52.764V57H10.72V48H11.812V51.684C12.044 51.46 12.296 51.292 12.568 51.18C12.848 51.06 13.172 51 13.54 51ZM19.8039 57.12C19.2039 57.12 18.6839 56.988 18.2439 56.724C17.8039 56.452 17.4679 56.084 17.2359 55.62C17.0039 55.156 16.8879 54.636 16.8879 54.06C16.8879 53.484 17.0039 52.964 17.2359 52.5C17.4679 52.036 17.8039 51.672 18.2439 51.408C18.6839 51.136 19.2039 51 19.8039 51C20.3959 51 20.9119 51.136 21.3519 51.408C21.7999 51.672 22.1399 52.036 22.3719 52.5C22.6039 52.964 22.7199 53.484 22.7199 54.06C22.7199 54.636 22.6039 55.156 22.3719 55.62C22.1399 56.084 21.7999 56.452 21.3519 56.724C20.9119 56.988 20.3959 57.12 19.8039 57.12ZM19.8039 56.16C20.3799 56.16 20.8239 55.976 21.1359 55.608C21.4559 55.24 21.6159 54.724 21.6159 54.06C21.6159 53.396 21.4559 52.88 21.1359 52.512C20.8239 52.144 20.3799 51.96 19.8039 51.96C19.2279 51.96 18.7799 52.144 18.4599 52.512C18.1479 52.88 17.9919 53.396 17.9919 54.06C17.9919 54.724 18.1479 55.24 18.4599 55.608C18.7799 55.976 19.2279 56.16 19.8039 56.16ZM23.8336 51.12H24.7216L24.8536 52.092C25.1576 51.716 25.4456 51.44 25.7176 51.264C25.9976 51.088 26.2896 51 26.5936 51C26.6896 51 26.7816 51.012 26.8696 51.036L26.7616 52.224C26.6576 52.2 26.5376 52.188 26.4016 52.188C26.1056 52.188 25.8256 52.256 25.5616 52.392C25.2976 52.52 25.1056 52.672 24.9856 52.848V57H23.8336V51.12ZM27.6304 48.6H28.7104V49.8H27.6304V48.6ZM27.6304 51.12H28.7104V57H27.6304V51.12ZM31.5174 56.052H34.7334V57H29.7054L32.9814 52.068H29.8974V51.12H34.7934L31.5174 56.052ZM38.2609 57.12C37.6609 57.12 37.1409 56.988 36.7009 56.724C36.2609 56.452 35.9249 56.084 35.6929 55.62C35.4609 55.156 35.3449 54.636 35.3449 54.06C35.3449 53.484 35.4609 52.964 35.6929 52.5C35.9249 52.036 36.2609 51.672 36.7009 51.408C37.1409 51.136 37.6609 51 38.2609 51C38.8529 51 39.3689 51.136 39.8089 51.408C40.2569 51.672 40.5969 52.036 40.8289 52.5C41.0609 52.964 41.1769 53.484 41.1769 54.06C41.1769 54.636 41.0609 55.156 40.8289 55.62C40.5969 56.084 40.2569 56.452 39.8089 56.724C39.3689 56.988 38.8529 57.12 38.2609 57.12ZM38.2609 56.16C38.8369 56.16 39.2809 55.976 39.5929 55.608C39.9129 55.24 40.0729 54.724 40.0729 54.06C40.0729 53.396 39.9129 52.88 39.5929 52.512C39.2809 52.144 38.8369 51.96 38.2609 51.96C37.6849 51.96 37.2369 52.144 36.9169 52.512C36.6049 52.88 36.4489 53.396 36.4489 54.06C36.4489 54.724 36.6049 55.24 36.9169 55.608C37.2369 55.976 37.6849 56.16 38.2609 56.16ZM45.1946 51C46.7946 51 47.5946 51.92 47.5946 53.76V57H46.5146V53.76C46.5146 53.128 46.3946 52.672 46.1546 52.392C45.9226 52.104 45.5306 51.96 44.9786 51.96C44.6266 51.96 44.3066 52.024 44.0186 52.152C43.7306 52.28 43.5146 52.472 43.3706 52.728V57H42.2906V51.12H43.1306L43.2506 51.744C43.5626 51.464 43.8746 51.272 44.1866 51.168C44.5066 51.056 44.8426 51 45.1946 51ZM50.928 57.12C50.408 57.12 50.02 56.984 49.764 56.712C49.516 56.44 49.392 56.108 49.392 55.716V51.96H48.384L48.48 51.12H49.392V49.668L50.472 49.56V51.12H52.02V51.96H50.472V55.056C50.472 55.464 50.496 55.744 50.544 55.896C50.592 56.048 50.692 56.148 50.844 56.196C51.004 56.236 51.292 56.256 51.708 56.256H51.984L51.9 57.12H50.928ZM54.3109 57.12C53.7669 57.12 53.3269 56.96 52.9909 56.64C52.6629 56.32 52.4989 55.912 52.4989 55.416C52.4989 54.672 52.8509 54.14 53.5549 53.82C54.2589 53.5 55.0789 53.332 56.0149 53.316C56.0149 52.788 55.9109 52.432 55.7029 52.248C55.5029 52.056 55.1789 51.96 54.7309 51.96C54.4829 51.96 54.2349 52 53.9869 52.08C53.7389 52.152 53.4709 52.288 53.1829 52.488L53.0269 51.612C53.2669 51.428 53.5629 51.28 53.9149 51.168C54.2669 51.056 54.6349 51 55.0189 51C55.5229 51 55.9229 51.088 56.2189 51.264C56.5229 51.44 56.7429 51.732 56.8789 52.14C57.0229 52.548 57.0949 53.108 57.0949 53.82V55.02C57.0949 55.34 57.1069 55.584 57.1309 55.752C57.1629 55.912 57.2269 56.036 57.3229 56.124C57.4189 56.212 57.5669 56.256 57.7669 56.256H57.8749L57.7069 57.12H57.6229C57.2869 57.12 57.0229 57.088 56.8309 57.024C56.6389 56.96 56.4909 56.868 56.3869 56.748C56.2909 56.628 56.1989 56.464 56.1109 56.256C55.6149 56.832 55.0149 57.12 54.3109 57.12ZM54.5149 56.256C54.8029 56.256 55.0789 56.184 55.3429 56.04C55.6149 55.896 55.8389 55.704 56.0149 55.464V54.06C55.1509 54.092 54.5309 54.208 54.1549 54.408C53.7869 54.6 53.6029 54.916 53.6029 55.356C53.6029 55.66 53.6829 55.888 53.8429 56.04C54.0109 56.184 54.2349 56.256 54.5149 56.256ZM60.2206 57.12C59.6926 57.12 59.3046 56.984 59.0566 56.712C58.8166 56.44 58.6966 56.104 58.6966 55.704V48H59.7766V55.08C59.7766 55.432 59.7966 55.688 59.8366 55.848C59.8846 56.008 59.9726 56.116 60.1006 56.172C60.2286 56.228 60.4366 56.256 60.7246 56.256L60.5686 57.12H60.2206ZM66.9398 57.12C66.2998 57.12 65.7478 56.988 65.2838 56.724C64.8278 56.46 64.4838 56.1 64.2518 55.644C64.0198 55.18 63.9038 54.664 63.9038 54.096C63.9038 53.168 64.1638 52.42 64.6838 51.852C65.2118 51.284 65.9918 51 67.0238 51C67.6318 51 68.1678 51.116 68.6318 51.348L68.4638 52.296C67.9758 52.072 67.4878 51.96 66.9998 51.96C66.3598 51.96 65.8678 52.144 65.5238 52.512C65.1798 52.872 65.0078 53.384 65.0078 54.048C65.0078 54.712 65.1718 55.232 65.4998 55.608C65.8358 55.984 66.3278 56.172 66.9758 56.172C67.4958 56.172 67.9958 56.052 68.4758 55.812L68.6198 56.676C68.4438 56.796 68.1998 56.9 67.8878 56.988C67.5838 57.076 67.2678 57.12 66.9398 57.12ZM72.175 57.12C71.575 57.12 71.055 56.988 70.615 56.724C70.175 56.452 69.839 56.084 69.607 55.62C69.375 55.156 69.259 54.636 69.259 54.06C69.259 53.484 69.375 52.964 69.607 52.5C69.839 52.036 70.175 51.672 70.615 51.408C71.055 51.136 71.575 51 72.175 51C72.767 51 73.283 51.136 73.723 51.408C74.171 51.672 74.511 52.036 74.743 52.5C74.975 52.964 75.091 53.484 75.091 54.06C75.091 54.636 74.975 55.156 74.743 55.62C74.511 56.084 74.171 56.452 73.723 56.724C73.283 56.988 72.767 57.12 72.175 57.12ZM72.175 56.16C72.751 56.16 73.195 55.976 73.507 55.608C73.827 55.24 73.987 54.724 73.987 54.06C73.987 53.396 73.827 52.88 73.507 52.512C73.195 52.144 72.751 51.96 72.175 51.96C71.599 51.96 71.151 52.144 70.831 52.512C70.519 52.88 70.363 53.396 70.363 54.06C70.363 54.724 70.519 55.24 70.831 55.608C71.151 55.976 71.599 56.16 72.175 56.16ZM81.0287 51.12V57H80.0687L79.9487 56.352C79.7567 56.616 79.5287 56.812 79.2647 56.94C79.0087 57.06 78.6927 57.12 78.3167 57.12C77.6127 57.12 77.0727 56.908 76.6967 56.484C76.3287 56.052 76.1447 55.404 76.1447 54.54V51.12H77.2247V54.24C77.2247 54.88 77.3327 55.36 77.5487 55.68C77.7727 56 78.1207 56.16 78.5927 56.16C78.8727 56.16 79.1327 56.104 79.3727 55.992C79.6207 55.88 79.8127 55.716 79.9487 55.5V51.12H81.0287ZM84.0096 57.12C83.4816 57.12 83.0936 56.984 82.8456 56.712C82.6056 56.44 82.4856 56.104 82.4856 55.704V48H83.5656V55.08C83.5656 55.432 83.5856 55.688 83.6256 55.848C83.6736 56.008 83.7616 56.116 83.8896 56.172C84.0176 56.228 84.2256 56.256 84.5136 56.256L84.3576 57.12H84.0096ZM90.483 48V57H89.523L89.403 56.28C89.203 56.552 88.943 56.76 88.623 56.904C88.303 57.048 87.963 57.12 87.603 57.12C87.107 57.12 86.655 56.984 86.247 56.712C85.839 56.44 85.515 56.072 85.275 55.608C85.043 55.144 84.927 54.632 84.927 54.072C84.927 53.528 85.035 53.02 85.251 52.548C85.475 52.076 85.791 51.7 86.199 51.42C86.607 51.14 87.075 51 87.603 51C87.955 51 88.287 51.064 88.599 51.192C88.911 51.32 89.179 51.516 89.403 51.78V48H90.483ZM87.795 56.16C88.083 56.16 88.359 56.088 88.623 55.944C88.887 55.792 89.103 55.56 89.271 55.248C89.439 54.936 89.523 54.544 89.523 54.072C89.523 53.632 89.439 53.252 89.271 52.932C89.103 52.612 88.883 52.372 88.611 52.212C88.347 52.044 88.075 51.96 87.795 51.96C87.251 51.96 86.819 52.16 86.499 52.56C86.187 52.952 86.031 53.456 86.031 54.072C86.031 54.664 86.191 55.16 86.511 55.56C86.831 55.96 87.259 56.16 87.795 56.16ZM96.4265 56.736L93.9785 51.12H95.1785L97.0145 55.488L98.6705 51.12H99.8705L96.2705 59.904H95.0705L96.4265 56.736ZM103.136 57.12C102.536 57.12 102.016 56.988 101.576 56.724C101.136 56.452 100.8 56.084 100.568 55.62C100.336 55.156 100.22 54.636 100.22 54.06C100.22 53.484 100.336 52.964 100.568 52.5C100.8 52.036 101.136 51.672 101.576 51.408C102.016 51.136 102.536 51 103.136 51C103.728 51 104.244 51.136 104.684 51.408C105.132 51.672 105.472 52.036 105.704 52.5C105.936 52.964 106.052 53.484 106.052 54.06C106.052 54.636 105.936 55.156 105.704 55.62C105.472 56.084 105.132 56.452 104.684 56.724C104.244 56.988 103.728 57.12 103.136 57.12ZM103.136 56.16C103.712 56.16 104.156 55.976 104.468 55.608C104.788 55.24 104.948 54.724 104.948 54.06C104.948 53.396 104.788 52.88 104.468 52.512C104.156 52.144 103.712 51.96 103.136 51.96C102.56 51.96 102.112 52.144 101.792 52.512C101.48 52.88 101.324 53.396 101.324 54.06C101.324 54.724 101.48 55.24 101.792 55.608C102.112 55.976 102.56 56.16 103.136 56.16ZM111.99 51.12V57H111.03L110.91 56.352C110.718 56.616 110.49 56.812 110.226 56.94C109.97 57.06 109.654 57.12 109.278 57.12C108.574 57.12 108.034 56.908 107.658 56.484C107.29 56.052 107.106 55.404 107.106 54.54V51.12H108.186V54.24C108.186 54.88 108.294 55.36 108.51 55.68C108.734 56 109.082 56.16 109.554 56.16C109.834 56.16 110.094 56.104 110.334 55.992C110.582 55.88 110.774 55.716 110.91 55.5V51.12H111.99ZM116.562 51.96H115.542L115.686 51.12H116.562V49.728C116.562 49.192 116.702 48.772 116.982 48.468C117.27 48.156 117.682 48 118.218 48C118.57 48 118.882 48.052 119.154 48.156L118.986 49.068C118.794 48.996 118.594 48.96 118.386 48.96C117.89 48.96 117.642 49.24 117.642 49.8V51.12H119.226V51.96H117.642V57H116.562V51.96ZM120.127 48.6H121.207V49.8H120.127V48.6ZM120.127 51.12H121.207V57H120.127V51.12ZM124.122 54.072L122.118 51.12H123.33L124.806 53.448L126.162 51.12H127.422L125.49 53.976L127.494 57H126.282L124.794 54.684L123.282 57H122.07L124.122 54.072ZM133.076 57.12C132.556 57.12 132.168 56.984 131.912 56.712C131.664 56.44 131.54 56.108 131.54 55.716V51.96H130.532L130.628 51.12H131.54V49.668L132.62 49.56V51.12H134.168V51.96H132.62V55.056C132.62 55.464 132.644 55.744 132.692 55.896C132.74 56.048 132.84 56.148 132.992 56.196C133.152 56.236 133.44 56.256 133.856 56.256H134.132L134.048 57.12H133.076ZM137.899 51C138.643 51 139.211 51.244 139.603 51.732C139.995 52.22 140.191 52.884 140.191 53.724V57H139.111V53.856C139.111 53.208 138.991 52.732 138.751 52.428C138.519 52.116 138.155 51.96 137.659 51.96C137.355 51.96 137.075 52.032 136.819 52.176C136.563 52.312 136.347 52.508 136.171 52.764V57H135.079V48H136.171V51.684C136.403 51.46 136.655 51.292 136.927 51.18C137.207 51.06 137.531 51 137.899 51ZM142.963 57.12C142.419 57.12 141.979 56.96 141.643 56.64C141.315 56.32 141.151 55.912 141.151 55.416C141.151 54.672 141.503 54.14 142.207 53.82C142.911 53.5 143.731 53.332 144.667 53.316C144.667 52.788 144.563 52.432 144.355 52.248C144.155 52.056 143.831 51.96 143.383 51.96C143.135 51.96 142.887 52 142.639 52.08C142.391 52.152 142.123 52.288 141.835 52.488L141.679 51.612C141.919 51.428 142.215 51.28 142.567 51.168C142.919 51.056 143.287 51 143.671 51C144.175 51 144.575 51.088 144.871 51.264C145.175 51.44 145.395 51.732 145.531 52.14C145.675 52.548 145.747 53.108 145.747 53.82V55.02C145.747 55.34 145.759 55.584 145.783 55.752C145.815 55.912 145.879 56.036 145.975 56.124C146.071 56.212 146.219 56.256 146.419 56.256H146.527L146.359 57.12H146.275C145.939 57.12 145.675 57.088 145.483 57.024C145.291 56.96 145.143 56.868 145.039 56.748C144.943 56.628 144.851 56.464 144.763 56.256C144.267 56.832 143.667 57.12 142.963 57.12ZM143.167 56.256C143.455 56.256 143.731 56.184 143.995 56.04C144.267 55.896 144.491 55.704 144.667 55.464V54.06C143.803 54.092 143.183 54.208 142.807 54.408C142.439 54.6 142.255 54.916 142.255 55.356C142.255 55.66 142.335 55.888 142.495 56.04C142.663 56.184 142.887 56.256 143.167 56.256ZM149.272 57.12C148.752 57.12 148.364 56.984 148.108 56.712C147.86 56.44 147.736 56.108 147.736 55.716V51.96H146.728L146.824 51.12H147.736V49.668L148.816 49.56V51.12H150.364V51.96H148.816V55.056C148.816 55.464 148.84 55.744 148.888 55.896C148.936 56.048 149.036 56.148 149.188 56.196C149.348 56.236 149.636 56.256 150.052 56.256H150.328L150.244 57.12H149.272ZM152.087 54.636C152.087 54.308 152.131 54.016 152.219 53.76C152.307 53.504 152.415 53.284 152.543 53.1C152.671 52.908 152.847 52.676 153.071 52.404C153.391 52.012 153.611 51.708 153.731 51.492C153.859 51.268 153.923 51.004 153.923 50.7C153.923 50.3 153.791 49.996 153.527 49.788C153.271 49.572 152.963 49.464 152.603 49.464C152.083 49.464 151.567 49.616 151.055 49.92L150.947 48.948C151.499 48.604 152.143 48.432 152.879 48.432C153.359 48.432 153.771 48.528 154.115 48.72C154.467 48.912 154.731 49.172 154.907 49.5C155.083 49.82 155.171 50.172 155.171 50.556C155.171 50.844 155.123 51.108 155.027 51.348C154.939 51.58 154.839 51.776 154.727 51.936C154.615 52.088 154.423 52.332 154.151 52.668C153.823 53.068 153.583 53.4 153.431 53.664C153.287 53.92 153.215 54.22 153.215 54.564V54.936H152.087V54.636ZM152.003 55.728H153.299V57H152.003V55.728Z" fill="black"/>
</svg>
