<svg width="22" height="26" viewBox="0 0 22 26" fill="none" xmlns="http://www.w3.org/2000/svg">
<path d="M17.013 19.7352L18.9948 23.2369C18.9298 23.6259 18.4945 24.2387 17.2729 23.5773L15.5186 20.7728" stroke="black" stroke-width="3.5"/>
<path d="M11.5382 1.89531C12.1816 2.57816 13.3815 4.21485 13.0341 5.29881C12.7759 6.10424 12.586 6.76718 11.998 7.52479L13.597 9.78304C14.9964 9.46581 18.1875 9.40881 19.7574 11.7187C21.7197 14.606 19.4357 17.332 18.921 18.0256C18.5993 18.1869 16.2349 20.7678 13.9509 21.3485C11.5229 21.9658 9.28631 22.2518 7.59742 20.2032C7.13633 19.5311 6.40716 18.2353 6.71277 16.7352C6.88856 15.8723 6.63234 15.5577 8.22472 13.1381L6.94312 10.6218C5.77028 10.8431 4.85758 10.7542 4.73439 10.6218C4.5092 10.3799 2.46645 10.2992 2 6.75054C2.10722 5.71282 2.89749 3.32123 5.20081 2.05662C8.07996 0.475845 10.1871 0.879102 11.5382 1.89531Z" fill="#5559E6"/>
<path d="M11.998 7.52479C12.586 6.76718 12.7759 6.10424 13.0341 5.29881C13.3815 4.21485 12.1816 2.57816 11.5382 1.89531C10.1871 0.879102 8.07996 0.475845 5.20081 2.05662C2.89749 3.32123 2.10722 5.71282 2 6.75054C2.46645 10.2992 4.5092 10.3799 4.73439 10.6218C4.85758 10.7542 5.77028 10.8431 6.94312 10.6218M11.998 7.52479C11.5968 8.04168 11.0104 8.60264 10.0906 9.28299C9.06338 10.0428 7.9141 10.4386 6.94312 10.6218M11.998 7.52479L13.597 9.78304C14.9964 9.46581 18.1875 9.40881 19.7574 11.7187C21.7197 14.606 19.4357 17.332 18.921 18.0256C18.5993 18.1869 16.2349 20.7678 13.9509 21.3485C11.5229 21.9658 9.28631 22.2518 7.59742 20.2032C7.13633 19.5311 6.40716 18.2353 6.71277 16.7352C6.88856 15.8723 6.63234 15.5577 8.22472 13.1381L6.94312 10.6218" stroke="black" stroke-width="2"/>
<path d="M13.5475 9.78613L15.0881 11.7605C15.3692 12.2207 15.5129 13.5006 13.8394 14.9388C12.1659 16.3771 10.2772 16.0304 9.5421 15.6772C9.37453 15.4686 9.01994 14.9613 8.9421 14.6018C8.86426 14.2422 8.40155 13.4674 8.17993 13.125" stroke="black" stroke-width="2"/>
</svg>
