<svg width="22" height="26" viewBox="0 0 22 26" fill="none" xmlns="http://www.w3.org/2000/svg">
<path d="M17.015 19.7394L18.9971 23.2418C18.9321 23.6309 18.4967 24.2439 17.275 23.5823L15.5204 20.7771" stroke="black" stroke-width="3.5"/>
<path d="M11.5394 1.89551C12.1829 2.57851 13.3829 4.21556 13.0355 5.29975C12.7773 6.10536 12.5873 6.76844 11.9992 7.52622L13.5985 9.78496C14.998 9.46766 18.1896 9.41066 19.7597 11.721C21.7223 14.609 19.4379 17.3356 18.9232 18.0294C18.6014 18.1907 16.2367 20.7721 13.9524 21.3529C11.5241 21.9704 9.28724 22.2564 7.59814 20.2074C7.13699 19.5352 6.40772 18.2391 6.71337 16.7386C6.88918 15.8756 6.63294 15.5609 8.22552 13.1408L6.94375 10.6239C5.77076 10.8453 4.85795 10.7563 4.73474 10.6239C4.50952 10.3819 2.46651 10.3012 2 6.7518C2.10723 5.71385 2.89761 3.32174 5.20122 2.05685C8.08074 0.47573 10.1882 0.879076 11.5394 1.89551Z" fill="#5559E6"/>
<path d="M11.9992 7.52622C12.5873 6.76844 12.7773 6.10536 13.0355 5.29975C13.3829 4.21556 12.1829 2.57851 11.5394 1.89551C10.1882 0.879076 8.08074 0.47573 5.20122 2.05685C2.89761 3.32174 2.10723 5.71385 2 6.7518C2.46651 10.3012 4.50952 10.3819 4.73474 10.6239C4.85795 10.7563 5.77076 10.8453 6.94375 10.6239M11.9992 7.52622C11.598 8.04322 11.0115 8.60431 10.0916 9.28481C9.06428 10.0448 7.91486 10.4407 6.94375 10.6239M11.9992 7.52622L13.5985 9.78496C14.998 9.46766 18.1896 9.41066 19.7597 11.721C21.7223 14.609 19.4379 17.3356 18.9232 18.0294C18.6014 18.1907 16.2367 20.7721 13.9524 21.3529C11.5241 21.9703 9.28724 22.2564 7.59814 20.2074C7.13699 19.5352 6.40772 18.2391 6.71337 16.7386C6.88918 15.8756 6.63294 15.5609 8.22552 13.1408L6.94375 10.6239" stroke="black" stroke-width="2"/>
<path d="M13.5491 9.78809L15.0898 11.7629C15.3709 12.2232 15.5147 13.5033 13.841 14.9419C12.1673 16.3805 10.2784 16.0337 9.54313 15.6805C9.37554 15.4718 9.0209 14.9644 8.94305 14.6048C8.8652 14.2451 8.40244 13.4702 8.18079 13.1276" stroke="black" stroke-width="2"/>
</svg>
