<svg width="17" height="22" viewBox="0 0 17 22" fill="none" xmlns="http://www.w3.org/2000/svg">
<path fill-rule="evenodd" clip-rule="evenodd" d="M16.0707 9.18732C16.4688 9.18732 16.7902 9.51967 16.7902 9.92918C16.7902 14.4715 13.4087 18.2109 9.11531 18.5901L9.11502 21.0067C9.11502 21.4162 8.79266 21.7486 8.39547 21.7486C7.99828 21.7486 7.67592 21.4162 7.67592 21.0067L7.67658 18.5902C3.38274 18.2115 0.000732422 14.4719 0.000732422 9.92918C0.000732422 9.51967 0.32309 9.18732 0.720281 9.18732C1.11843 9.18732 1.43983 9.51967 1.43983 9.92918C1.43983 13.9036 4.55979 17.1381 8.39547 17.1381C12.2311 17.1381 15.3511 13.9036 15.3511 9.92918C15.3511 9.51967 15.6735 9.18732 16.0707 9.18732ZM8.39547 0.481934C10.9408 0.481934 13.0121 2.62542 13.0121 5.2605V9.89763C13.0121 12.5317 10.9408 14.6752 8.39547 14.6752C5.85019 14.6752 3.77884 12.5317 3.77884 9.89763V5.2605C3.77884 2.62542 5.85019 0.481934 8.39547 0.481934ZM8.39547 1.96565C6.64361 1.96565 5.21794 3.44344 5.21794 5.2605V9.89763C5.21794 11.7127 6.64361 13.1915 8.39547 13.1915C10.1473 13.1915 11.573 11.7127 11.573 9.89763V5.2605C11.573 3.44344 10.1473 1.96565 8.39547 1.96565Z" fill="black"/>
</svg>
