<svg width="25" height="25" viewBox="0 0 25 25" fill="none" xmlns="http://www.w3.org/2000/svg">
<path fill-rule="evenodd" clip-rule="evenodd" d="M24.0385 23.0199C24.5692 23.0199 25 23.4634 25 24.0099C25 24.5564 24.5692 24.9999 24.0385 24.9999H14.74C14.2092 24.9999 13.7785 24.5564 13.7785 24.0099C13.7785 23.4634 14.2092 23.0199 14.74 23.0199H24.0385ZM18.0973 0.862797C18.1614 0.914276 20.3063 2.63025 20.3063 2.63025C21.0857 3.10809 21.6947 3.96212 21.9255 4.97322C22.1549 5.97377 21.9883 7.006 21.4537 7.87851C21.4501 7.88433 21.4466 7.89007 21.4342 7.90718L21.4245 7.92039C21.3378 8.03814 20.9605 8.52925 19.0567 10.9852C19.039 11.0174 19.0189 11.0475 18.9971 11.0768C18.965 11.12 18.93 11.1597 18.8927 11.1958C18.7629 11.3642 18.6257 11.5411 18.4815 11.727L18.1893 12.1038C17.5864 12.8813 16.8712 13.8032 16.0228 14.8966L15.5873 15.4578C13.9493 17.5686 11.8516 20.2713 9.16423 23.7328C8.57578 24.4878 7.69375 24.9274 6.74634 24.9393L2.08107 25H2.06825C1.62339 25 1.23622 24.6858 1.13238 24.2384L0.0824009 19.6567C-0.13426 18.7076 0.0811189 17.7282 0.67213 16.9679L12.7488 1.41587C12.7539 1.41059 12.7577 1.40399 12.7629 1.39871C14.0872 -0.231469 16.482 -0.471706 18.0973 0.862797ZM11.4023 6.31876L2.17338 18.2047C1.95415 18.4872 1.87338 18.8515 1.95415 19.2013L2.82721 23.0095L6.72326 22.9593C7.09377 22.9553 7.43607 22.7851 7.66299 22.4947C8.83153 20.9893 10.3002 19.0973 11.8101 17.1519L12.3444 16.4636L12.8795 15.7741C14.2956 13.9494 15.6946 12.1466 16.8651 10.6376L11.4023 6.31876ZM14.2436 2.66193L12.6035 4.77174L18.0659 9.08931C19.1173 7.73338 19.809 6.84033 19.8729 6.7552C20.0832 6.40408 20.1652 5.90777 20.055 5.42994C19.9422 4.94022 19.646 4.52443 19.2191 4.25911C19.1281 4.19443 16.9679 2.4679 16.9012 2.41378C16.0884 1.74323 14.9026 1.85938 14.2436 2.66193Z" fill="#FED215"/>
</svg>
