<svg width="30" height="30" viewBox="0 0 30 30" fill="none" xmlns="http://www.w3.org/2000/svg">
<path fill-rule="evenodd" clip-rule="evenodd" d="M14.4177 0C22.3675 0 28.834 6.3238 28.834 14.0983C28.834 17.7662 27.3946 21.1116 25.0392 23.6223L29.674 28.1454C30.1077 28.5696 30.1092 29.2559 29.6754 29.68C29.4593 29.8943 29.1736 30 28.8893 30C28.6066 30 28.3223 29.8943 28.1047 29.6829L23.414 25.1085C20.9464 27.041 17.8178 28.198 14.4177 28.198C6.46793 28.198 1.3079e-05 21.8727 1.3079e-05 14.0983C1.3079e-05 6.3238 6.46793 0 14.4177 0ZM14.4177 2.17164C7.69223 2.17164 2.22063 7.5211 2.22063 14.0983C2.22063 20.6754 7.69223 26.0263 14.4177 26.0263C21.1418 26.0263 26.6134 20.6754 26.6134 14.0983C26.6134 7.5211 21.1418 2.17164 14.4177 2.17164Z" fill="black"/>
</svg>
