<svg width="20" height="20" viewBox="0 0 20 20" fill="none" xmlns="http://www.w3.org/2000/svg">
<path fill-rule="evenodd" clip-rule="evenodd" d="M19.6 10.2271C19.6 9.518 19.5364 8.83619 19.4182 8.18164H10V12.0498H15.3818C15.15 13.2998 14.4455 14.3589 13.3864 15.068V17.5771H16.6182C18.5091 15.8362 19.6 13.2725 19.6 10.2271Z" fill="#4285F4"/>
<path fill-rule="evenodd" clip-rule="evenodd" d="M9.99999 19.9999C12.7 19.9999 14.9636 19.1044 16.6182 17.5772L13.3864 15.0681C12.4909 15.6681 11.3454 16.0226 9.99999 16.0226C7.39545 16.0226 5.1909 14.2635 4.40454 11.8999H1.06363V14.4908C2.70908 17.759 6.0909 19.9999 9.99999 19.9999Z" fill="#34A853"/>
<path fill-rule="evenodd" clip-rule="evenodd" d="M4.40454 11.8997C4.20454 11.2997 4.09091 10.6588 4.09091 9.9997C4.09091 9.34061 4.20454 8.6997 4.40454 8.0997V5.50879H1.06364C0.386363 6.85879 0 8.38606 0 9.9997C0 11.6133 0.386363 13.1406 1.06364 14.4906L4.40454 11.8997Z" fill="#FBBC05"/>
<path fill-rule="evenodd" clip-rule="evenodd" d="M9.99999 3.97727C11.4682 3.97727 12.7864 4.48182 13.8227 5.47273L16.6909 2.60455C14.9591 0.990909 12.6954 0 9.99999 0C6.0909 0 2.70908 2.24091 1.06363 5.50909L4.40454 8.1C5.1909 5.73636 7.39545 3.97727 9.99999 3.97727Z" fill="#EA4335"/>
</svg>
