<svg width="11" height="22" viewBox="0 0 11 22" fill="none" xmlns="http://www.w3.org/2000/svg">
<path d="M9.5007 5.25466V16.2319C9.5007 18.3415 7.7107 20.0501 5.5007 20.0501C3.2907 20.0501 1.5007 18.3415 1.5007 16.2319V4.30012C1.5007 3.66721 1.76409 3.06023 2.23293 2.6127C2.70178 2.16517 3.33766 1.91375 4.0007 1.91375C4.66374 1.91375 5.29963 2.16517 5.76847 2.6127C6.23731 3.06023 6.5007 3.66721 6.5007 4.30012V14.3228C6.5007 14.8478 6.0507 15.2774 5.5007 15.2774C4.9507 15.2774 4.5007 14.8478 4.5007 14.3228V5.25466H3.0007V14.3228C3.0007 14.9557 3.26409 15.5627 3.73293 16.0103C4.20178 16.4578 4.83766 16.7092 5.5007 16.7092C6.16374 16.7092 6.79963 16.4578 7.26847 16.0103C7.73731 15.5627 8.0007 14.9557 8.0007 14.3228V4.30012C8.0007 2.19057 6.2107 0.481934 4.0007 0.481934C1.7907 0.481934 0.000701904 2.19057 0.000701904 4.30012V16.2319C0.000701904 19.1338 2.4607 21.4819 5.5007 21.4819C8.5407 21.4819 11.0007 19.1338 11.0007 16.2319V5.25466H9.5007Z" fill="black"/>
</svg>
