<svg width="16" height="16" viewBox="0 0 16 16" fill="none" xmlns="http://www.w3.org/2000/svg">
<path d="M7.8368 0.0112L8 0C8.28998 1.22286e-05 8.57015 0.105028 8.78869 0.295627C9.00723 0.486226 9.14936 0.749514 9.1888 1.0368L9.2 1.2V6.8H14.8C15.09 6.80001 15.3701 6.90503 15.5887 7.09563C15.8072 7.28623 15.9494 7.54951 15.9888 7.8368L16 8C16 8.28998 15.895 8.57015 15.7044 8.78869C15.5138 9.00723 15.2505 9.14936 14.9632 9.1888L14.8 9.2H9.2V14.8C9.19999 15.09 9.09497 15.3701 8.90437 15.5887C8.71377 15.8072 8.45049 15.9494 8.1632 15.9888L8 16C7.71002 16 7.42985 15.895 7.21131 15.7044C6.99277 15.5138 6.85064 15.2505 6.8112 14.9632L6.8 14.8V9.2H1.2C0.91002 9.19999 0.629853 9.09497 0.411311 8.90437C0.192769 8.71377 0.0506372 8.45049 0.0112 8.1632L0 8C1.22286e-05 7.71002 0.105028 7.42985 0.295627 7.21131C0.486226 6.99277 0.749514 6.85064 1.0368 6.8112L1.2 6.8H6.8V1.2C6.80001 0.91002 6.90503 0.629853 7.09563 0.411311C7.28623 0.192769 7.54951 0.0506372 7.8368 0.0112Z" fill="#FED215"/>
</svg>
