<svg width="287" height="215" viewBox="0 0 287 215" fill="none" xmlns="http://www.w3.org/2000/svg">
<path opacity="0.8" d="M124.349 12.8109C134.106 7.08422 160.646 -2.1701 188.747 6.62609M124.349 12.8109C72.8308 74.3842 69.058 135.82 73.6114 158.841H90.0035M124.349 12.8109C57.2192 21.4009 29.5087 99.3984 30.2893 140.287M188.747 6.62609C191.739 8.11502 197.567 11.4365 196.943 12.8109M188.747 6.62609C147.636 23.2335 70.3329 76.9269 90.0035 158.841M196.943 12.8109C165.069 20.0265 99.0582 59.3345 90.0035 158.841M196.943 12.8109C213.855 16.5905 250.256 33.6331 260.56 71.5667C263.552 82.6765 269.302 108.95 268.366 125.168M268.366 125.168C263.422 138.111 242.841 165.713 200.065 172.585C146.595 181.175 31.0698 181.175 30.2893 140.287M268.366 125.168C268.448 123.107 283.587 123.45 283.977 133.758C284.368 144.067 280.074 156.093 244.558 170.524C209.042 184.955 184.844 198.355 170.013 202.479C155.182 206.602 146.595 214.161 98.5899 211.412C50.5843 208.664 -4.05619 200.073 3.7496 179.457C2.44863 174.189 5.93521 158.979 30.2893 140.287" stroke="black" stroke-width="5"/>
</svg>
